  0
SECTION
  2
HEADER
  9
$ACADVER
  1
AC1024
  9
$ACADMAINTVER
 70
     6
  9
$DWGCODEPAGE
  3
ANSI_1252
  9
$INSBASE
 10
0.0
 20
0.0
 30
0.0
  9
$EXTMIN
 10
1.000000000000000E+20
 20
1.000000000000000E+20
 30
1.000000000000000E+20
  9
$EXTMAX
 10
-1.000000000000000E+20
 20
-1.000000000000000E+20
 30
-1.000000000000000E+20
  9
$LIMMIN
 10
0.0
 20
0.0
  9
$LIMMAX
 10
12.0
 20
9.0
  9
$ORTHOMODE
 70
     0
  9
$REGENMODE
 70
     1
  9
$FILLMODE
 70
     1
  9
$QTEXTMODE
 70
     0
  9
$MIRRTEXT
 70
     1
  9
$LTSCALE
 40
1.0
  9
$ATTMODE
 70
     1
  9
$TEXTSIZE
 40
0.2
  9
$TRACEWID
 40
0.05
  9
$TEXTSTYLE
  7
Standard
  9
$CLAYER
  8
0
  9
$CELTYPE
  6
ByLayer
  9
$CECOLOR
 62
   256
  9
$CELTSCALE
 40
1.0
  9
$DISPSILH
 70
     0
  9
$DIMSCALE
 40
1.0
  9
$DIMASZ
 40
0.18
  9
$DIMEXO
 40
0.0625
  9
$DIMDLI
 40
0.38
  9
$DIMRND
 40
0.0
  9
$DIMDLE
 40
0.0
  9
$DIMEXE
 40
0.18
  9
$DIMTP
 40
0.0
  9
$DIMTM
 40
0.0
  9
$DIMTXT
 40
0.18
  9
$DIMCEN
 40
0.09
  9
$DIMTSZ
 40
0.0
  9
$DIMTOL
 70
     0
  9
$DIMLIM
 70
     0
  9
$DIMTIH
 70
     1
  9
$DIMTOH
 70
     1
  9
$DIMSE1
 70
     0
  9
$DIMSE2
 70
     0
  9
$DIMTAD
 70
     0
  9
$DIMZIN
 70
     0
  9
$DIMBLK
  1

  9
$DIMASO
 70
     1
  9
$DIMSHO
 70
     1
  9
$DIMPOST
  1

  9
$DIMAPOST
  1

  9
$DIMALT
 70
     0
  9
$DIMALTD
 70
     2
  9
$DIMALTF
 40
25.4
  9
$DIMLFAC
 40
1.0
  9
$DIMTOFL
 70
     0
  9
$DIMTVP
 40
0.0
  9
$DIMTIX
 70
     0
  9
$DIMSOXD
 70
     0
  9
$DIMSAH
 70
     0
  9
$DIMBLK1
  1

  9
$DIMBLK2
  1

  9
$DIMSTYLE
  2
Standard
  9
$DIMCLRD
 70
     0
  9
$DIMCLRE
 70
     0
  9
$DIMCLRT
 70
     0
  9
$DIMTFAC
 40
1.0
  9
$DIMGAP
 40
0.09
  9
$DIMJUST
 70
     0
  9
$DIMSD1
 70
     0
  9
$DIMSD2
 70
     0
  9
$DIMTOLJ
 70
     1
  9
$DIMTZIN
 70
     0
  9
$DIMALTZ
 70
     0
  9
$DIMALTTZ
 70
     0
  9
$DIMUPT
 70
     0
  9
$DIMDEC
 70
     4
  9
$DIMTDEC
 70
     4
  9
$DIMALTU
 70
     2
  9
$DIMALTTD
 70
     2
  9
$DIMTXSTY
  7
Standard
  9
$DIMAUNIT
 70
     0
  9
$DIMADEC
 70
     0
  9
$DIMALTRND
 40
0.0
  9
$DIMAZIN
 70
     0
  9
$DIMDSEP
 70
    46
  9
$DIMATFIT
 70
     3
  9
$DIMFRAC
 70
     0
  9
$DIMLDRBLK
  1

  9
$DIMLUNIT
 70
     2
  9
$DIMLWD
 70
    -2
  9
$DIMLWE
 70
    -2
  9
$DIMTMOVE
 70
     0
  9
$DIMFXL
 40
1.0
  9
$DIMFXLON
 70
     0
  9
$DIMJOGANG
 40
0.7853981633974483
  9
$DIMTFILL
 70
     0
  9
$DIMTFILLCLR
 70
     0
  9
$DIMARCSYM
 70
     0
  9
$DIMLTYPE
  6

  9
$DIMLTEX1
  6

  9
$DIMLTEX2
  6

  9
$DIMTXTDIRECTION
 70
     0
  9
$LUNITS
 70
     2
  9
$LUPREC
 70
     4
  9
$SKETCHINC
 40
0.1
  9
$FILLETRAD
 40
0.5
  9
$AUNITS
 70
     0
  9
$AUPREC
 70
     0
  9
$MENU
  1
.
  9
$ELEVATION
 40
0.0
  9
$PELEVATION
 40
0.0
  9
$THICKNESS
 40
0.0
  9
$LIMCHECK
 70
     0
  9
$CHAMFERA
 40
0.5
  9
$CHAMFERB
 40
0.5
  9
$CHAMFERC
 40
1.0
  9
$CHAMFERD
 40
0.0
  9
$SKPOLY
 70
     0
  9
$TDCREATE
 40
2458389.743840394
  9
$TDUCREATE
 40
2458389.327173727
  9
$TDUPDATE
 40
2458389.743840394
  9
$TDUUPDATE
 40
2458389.327173727
  9
$TDINDWG
 40
0.0000000116
  9
$TDUSRTIMER
 40
0.0000000116
  9
$USRTIMER
 70
     1
  9
$ANGBASE
 50
0.0
  9
$ANGDIR
 70
     0
  9
$PDMODE
 70
     0
  9
$PDSIZE
 40
0.0
  9
$PLINEWID
 40
0.0
  9
$SPLFRAME
 70
     0
  9
$SPLINETYPE
 70
     6
  9
$SPLINESEGS
 70
     8
  9
$HANDSEED
  5
45
  9
$SURFTAB1
 70
     6
  9
$SURFTAB2
 70
     6
  9
$SURFTYPE
 70
     6
  9
$SURFU
 70
     6
  9
$SURFV
 70
     6
  9
$UCSBASE
  2

  9
$UCSNAME
  2

  9
$UCSORG
 10
0.0
 20
0.0
 30
0.0
  9
$UCSXDIR
 10
1.0
 20
0.0
 30
0.0
  9
$UCSYDIR
 10
0.0
 20
1.0
 30
0.0
  9
$UCSORTHOREF
  2

  9
$UCSORTHOVIEW
 70
     0
  9
$UCSORGTOP
 10
0.0
 20
0.0
 30
0.0
  9
$UCSORGBOTTOM
 10
0.0
 20
0.0
 30
0.0
  9
$UCSORGLEFT
 10
0.0
 20
0.0
 30
0.0
  9
$UCSORGRIGHT
 10
0.0
 20
0.0
 30
0.0
  9
$UCSORGFRONT
 10
0.0
 20
0.0
 30
0.0
  9
$UCSORGBACK
 10
0.0
 20
0.0
 30
0.0
  9
$PUCSBASE
  2

  9
$PUCSNAME
  2

  9
$PUCSORG
 10
0.0
 20
0.0
 30
0.0
  9
$PUCSXDIR
 10
1.0
 20
0.0
 30
0.0
  9
$PUCSYDIR
 10
0.0
 20
1.0
 30
0.0
  9
$PUCSORTHOREF
  2

  9
$PUCSORTHOVIEW
 70
     0
  9
$PUCSORGTOP
 10
0.0
 20
0.0
 30
0.0
  9
$PUCSORGBOTTOM
 10
0.0
 20
0.0
 30
0.0
  9
$PUCSORGLEFT
 10
0.0
 20
0.0
 30
0.0
  9
$PUCSORGRIGHT
 10
0.0
 20
0.0
 30
0.0
  9
$PUCSORGFRONT
 10
0.0
 20
0.0
 30
0.0
  9
$PUCSORGBACK
 10
0.0
 20
0.0
 30
0.0
  9
$USERI1
 70
     0
  9
$USERI2
 70
     0
  9
$USERI3
 70
     0
  9
$USERI4
 70
     0
  9
$USERI5
 70
     0
  9
$USERR1
 40
0.0
  9
$USERR2
 40
0.0
  9
$USERR3
 40
0.0
  9
$USERR4
 40
0.0
  9
$USERR5
 40
0.0
  9
$WORLDVIEW
 70
     1
  9
$SHADEDGE
 70
     3
  9
$SHADEDIF
 70
    70
  9
$TILEMODE
 70
     1
  9
$MAXACTVP
 70
    64
  9
$PINSBASE
 10
0.0
 20
0.0
 30
0.0
  9
$PLIMCHECK
 70
     0
  9
$PEXTMIN
 10
1.000000000000000E+20
 20
1.000000000000000E+20
 30
1.000000000000000E+20
  9
$PEXTMAX
 10
-1.000000000000000E+20
 20
-1.000000000000000E+20
 30
-1.000000000000000E+20
  9
$PLIMMIN
 10
0.0
 20
0.0
  9
$PLIMMAX
 10
12.0
 20
9.0
  9
$UNITMODE
 70
     0
  9
$VISRETAIN
 70
     1
  9
$PLINEGEN
 70
     0
  9
$PSLTSCALE
 70
     1
  9
$TREEDEPTH
 70
  3020
  9
$CMLSTYLE
  2
Standard
  9
$CMLJUST
 70
     0
  9
$CMLSCALE
 40
1.0
  9
$PROXYGRAPHICS
 70
     1
  9
$MEASUREMENT
 70
     0
  9
$CELWEIGHT
370
    -1
  9
$ENDCAPS
280
     0
  9
$JOINSTYLE
280
     0
  9
$LWDISPLAY
290
     1
  9
$INSUNITS
 70
     1
  9
$HYPERLINKBASE
  1

  9
$STYLESHEET
  1

  9
$XEDIT
290
     1
  9
$CEPSNTYPE
380
     0
  9
$PSTYLEMODE
290
     1
  9
$FINGERPRINTGUID
  2
{10A0FAAE-2132-4DC4-A34D-353BC193B30B}
  9
$VERSIONGUID
  2
{FAEB1C32-E019-11D5-929B-00C0DF256EC4}
  9
$EXTNAMES
290
     1
  9
$PSVPSCALE
 40
0.0
  9
$OLESTARTUP
290
     0
  9
$SORTENTS
280
   127
  9
$INDEXCTL
280
     0
  9
$HIDETEXT
280
     1
  9
$XCLIPFRAME
280
     2
  9
$HALOGAP
280
     0
  9
$OBSCOLOR
 70
   257
  9
$OBSLTYPE
280
     0
  9
$INTERSECTIONDISPLAY
280
     0
  9
$INTERSECTIONCOLOR
 70
   257
  9
$DIMASSOC
280
     2
  9
$PROJECTNAME
  1

  9
$CAMERADISPLAY
290
     0
  9
$LENSLENGTH
 40
50.0
  9
$CAMERAHEIGHT
 40
0.0
  9
$STEPSPERSEC
 40
2.0
  9
$STEPSIZE
 40
6.0
  9
$3DDWFPREC
 40
2.0
  9
$PSOLWIDTH
 40
0.25
  9
$PSOLHEIGHT
 40
4.0
  9
$LOFTANG1
 40
1.570796326794897
  9
$LOFTANG2
 40
1.570796326794897
  9
$LOFTMAG1
 40
0.0
  9
$LOFTMAG2
 40
0.0
  9
$LOFTPARAM
 70
     7
  9
$LOFTNORMALS
280
     1
  9
$LATITUDE
 40
37.795
  9
$LONGITUDE
 40
-122.394
  9
$NORTHDIRECTION
 40
0.0
  9
$TIMEZONE
 70
 -8000
  9
$LIGHTGLYPHDISPLAY
280
     1
  9
$TILEMODELIGHTSYNCH
280
     1
  9
$CMATERIAL
347
3C
  9
$SOLIDHIST
280
     1
  9
$SHOWHIST
280
     1
  9
$DWFFRAME
280
     2
  9
$DGNFRAME
280
     2
  9
$REALWORLDSCALE
290
     1
  9
$INTERFERECOLOR
 62
   256
  9
$CSHADOW
280
     0
  9
$SHADOWPLANELOCATION
 40
0.0
  0
ENDSEC
  0
SECTION
  2
CLASSES
  0
CLASS
  1
ACDBDICTIONARYWDFLT
  2
AcDbDictionaryWithDefault
  3
ObjectDBX Classes
 90
        0
 91
        4
280
     0
281
     0
  0
CLASS
  1
VISUALSTYLE
  2
AcDbVisualStyle
  3
ObjectDBX Classes
 90
     4095
 91
        4
280
     0
281
     0
  0
CLASS
  1
MATERIAL
  2
AcDbMaterial
  3
ObjectDBX Classes
 90
     1153
 91
        4
280
     0
281
     0
  0
CLASS
  1
SUN
  2
AcDbSun
  3
SCENEOE
 90
     1024
 91
        4
280
     0
281
     0
  0
ENDSEC
  0
SECTION
  2
TABLES
  0
TABLE
  2
VPORT
  5
8
330
0
100
AcDbSymbolTable
 70
     1
  0
VPORT
  5
29
330
8
100
AcDbSymbolTableRecord
100
AcDbViewportTableRecord
  2
*Active
 70
     0
 10
0.0
 20
0.0
 11
1.0
 21
1.0
 12
0.0
 22
0.0
 13
0.0
 23
0.0
 14
0.5
 24
0.5
 15
0.5
 25
0.5
 16
0.0
 26
0.0
 36
1.0
 17
6.0
 27
-6.0
 37
0.0
 40
12.0
 41
1.0
 42
50.0
 43
0.0
 44
0.0
 50
0.0
 51
0.0
 71
     0
 72
   100
 73
     1
 74
     3
 75
     0
 76
     0
 77
     0
 78
     0
281
     0
 65
     1
110
0.0
120
0.0
130
0.0
111
1.0
121
0.0
131
0.0
112
0.0
122
1.0
132
0.0
 79
     0
146
0.0
 60
     3
 61
     5
292
     1
282
     1
141
0.0
142
0.0
 63
   250
361
3F
  0
ENDTAB
  0
TABLE
  2
LTYPE
  5
5
330
0
100
AcDbSymbolTable
 70
     1
  0
LTYPE
  5
14
330
5
100
AcDbSymbolTableRecord
100
AcDbLinetypeTableRecord
  2
ByBlock
 70
     0
  3

 72
    65
 73
     0
 40
0.0
  0
LTYPE
  5
15
330
5
100
AcDbSymbolTableRecord
100
AcDbLinetypeTableRecord
  2
ByLayer
 70
     0
  3

 72
    65
 73
     0
 40
0.0
  0
LTYPE
  5
16
330
5
100
AcDbSymbolTableRecord
100
AcDbLinetypeTableRecord
  2
Continuous
 70
     0
  3
Solid line
 72
    65
 73
     0
 40
0.0
  0
ENDTAB
  0
TABLE
  2
LAYER
  5
2
330
0
100
AcDbSymbolTable
 70
     2
  0
LAYER
  5
10
330
2
100
AcDbSymbolTableRecord
100
AcDbLayerTableRecord
  2
0
 70
     0
 62
     7
  6
Continuous
370
    -3
390
F
347
3E
  0
LAYER
  5
40
330
2
100
AcDbSymbolTableRecord
100
AcDbLayerTableRecord
  2
Layer 1
 70
     0
 62
     7
  6
Continuous
370
    -3
390
F
347
3E
  0
ENDTAB
  0
TABLE
  2
STYLE
  5
3
330
0
100
AcDbSymbolTable
 70
     1
  0
STYLE
  5
11
330
3
100
AcDbSymbolTableRecord
100
AcDbTextStyleTableRecord
  2
Standard
 70
     0
 40
0.0
 41
1.0
 50
0.0
 71
     0
 42
0.2
  3
txt
  4

  0
ENDTAB
  0
TABLE
  2
VIEW
  5
6
330
0
100
AcDbSymbolTable
 70
     0
  0
ENDTAB
  0
TABLE
  2
UCS
  5
7
330
0
100
AcDbSymbolTable
 70
     0
  0
ENDTAB
  0
TABLE
  2
APPID
  5
9
330
0
100
AcDbSymbolTable
 70
     1
  0
APPID
  5
12
330
9
100
AcDbSymbolTableRecord
100
AcDbRegAppTableRecord
  2
ACAD
 70
     0
  0
ENDTAB
  0
TABLE
  2
DIMSTYLE
  5
A
330
0
100
AcDbSymbolTable
 70
     1
100
AcDbDimStyleTable
  0
DIMSTYLE
105
27
330
A
100
AcDbSymbolTableRecord
100
AcDbDimStyleTableRecord
  2
Standard
 70
     0
178
     0
340
11
  0
ENDTAB
  0
TABLE
  2
BLOCK_RECORD
  5
1
330
0
100
AcDbSymbolTable
 70
     1
  0
BLOCK_RECORD
  5
1F
330
1
100
AcDbSymbolTableRecord
100
AcDbBlockTableRecord
  2
*Model_Space
340
22
 70
     0
280
     1
281
     0
  0
BLOCK_RECORD
  5
1B
330
1
100
AcDbSymbolTableRecord
100
AcDbBlockTableRecord
  2
*Paper_Space
340
1E
 70
     0
280
     1
281
     0
  0
BLOCK_RECORD
  5
23
330
1
100
AcDbSymbolTableRecord
100
AcDbBlockTableRecord
  2
*Paper_Space0
340
26
 70
     0
280
     1
281
     0
  0
ENDTAB
  0
ENDSEC
  0
SECTION
  2
BLOCKS
  0
BLOCK
  5
20
330
1F
100
AcDbEntity
  8
0
100
AcDbBlockBegin
  2
*Model_Space
 70
     0
 10
0.0
 20
0.0
 30
0.0
  3
*Model_Space
  1

  0
ENDBLK
  5
21
330
1F
100
AcDbEntity
  8
0
100
AcDbBlockEnd
  0
BLOCK
  5
1C
330
1B
100
AcDbEntity
 67
     1
  8
0
100
AcDbBlockBegin
  2
*Paper_Space
 70
     0
 10
0.0
 20
0.0
 30
0.0
  3
*Paper_Space
  1

  0
ENDBLK
  5
1D
330
1B
100
AcDbEntity
 67
     1
  8
0
100
AcDbBlockEnd
  0
BLOCK
  5
24
330
23
100
AcDbEntity
  8
0
100
AcDbBlockBegin
  2
*Paper_Space0
 70
     0
 10
0.0
 20
0.0
 30
0.0
  3
*Paper_Space0
  1

  0
ENDBLK
  5
25
330
23
100
AcDbEntity
  8
0
100
AcDbBlockEnd
  0
ENDSEC
  0
SECTION
  2
ENTITIES
  0
SPLINE
  5
41
330
1F
100
AcDbEntity
  8
Layer 1
370
     0
100
AcDbSpline
210
0.0
220
0.0
230
1.0
 70
    11
 71
     3
 72
   692
 73
   688
 74
     0
 42
0.0000000001
 43
0.0000000001
 12
1.0
 22
0.0
 32
0.0
 13
1.0
 23
0.0
 33
0.0
 40
0.0
 40
0.0
 40
0.0
 40
0.0
 40
1.0
 40
1.0
 40
1.0
 40
2.0
 40
2.0
 40
2.0
 40
3.0
 40
3.0
 40
3.0
 40
4.0
 40
4.0
 40
4.0
 40
5.0
 40
5.0
 40
5.0
 40
6.0
 40
6.0
 40
6.0
 40
7.0
 40
7.0
 40
7.0
 40
8.0
 40
8.0
 40
8.0
 40
9.0
 40
9.0
 40
9.0
 40
10.0
 40
10.0
 40
10.0
 40
11.0
 40
11.0
 40
11.0
 40
12.0
 40
12.0
 40
12.0
 40
13.0
 40
13.0
 40
13.0
 40
14.0
 40
14.0
 40
14.0
 40
15.0
 40
15.0
 40
15.0
 40
16.0
 40
16.0
 40
16.0
 40
17.0
 40
17.0
 40
17.0
 40
18.0
 40
18.0
 40
18.0
 40
19.0
 40
19.0
 40
19.0
 40
20.0
 40
20.0
 40
20.0
 40
21.0
 40
21.0
 40
21.0
 40
22.0
 40
22.0
 40
22.0
 40
23.0
 40
23.0
 40
23.0
 40
24.0
 40
24.0
 40
24.0
 40
25.0
 40
25.0
 40
25.0
 40
26.0
 40
26.0
 40
26.0
 40
27.0
 40
27.0
 40
27.0
 40
28.0
 40
28.0
 40
28.0
 40
29.0
 40
29.0
 40
29.0
 40
30.0
 40
30.0
 40
30.0
 40
31.0
 40
31.0
 40
31.0
 40
32.0
 40
32.0
 40
32.0
 40
33.0
 40
33.0
 40
33.0
 40
34.0
 40
34.0
 40
34.0
 40
35.0
 40
35.0
 40
35.0
 40
36.0
 40
36.0
 40
36.0
 40
37.0
 40
37.0
 40
37.0
 40
38.0
 40
38.0
 40
38.0
 40
39.0
 40
39.0
 40
39.0
 40
40.0
 40
40.0
 40
40.0
 40
41.0
 40
41.0
 40
41.0
 40
42.0
 40
42.0
 40
42.0
 40
43.0
 40
43.0
 40
43.0
 40
44.0
 40
44.0
 40
44.0
 40
45.0
 40
45.0
 40
45.0
 40
46.0
 40
46.0
 40
46.0
 40
47.0
 40
47.0
 40
47.0
 40
48.0
 40
48.0
 40
48.0
 40
49.0
 40
49.0
 40
49.0
 40
50.0
 40
50.0
 40
50.0
 40
51.0
 40
51.0
 40
51.0
 40
52.0
 40
52.0
 40
52.0
 40
53.0
 40
53.0
 40
53.0
 40
54.0
 40
54.0
 40
54.0
 40
55.0
 40
55.0
 40
55.0
 40
56.0
 40
56.0
 40
56.0
 40
57.0
 40
57.0
 40
57.0
 40
58.0
 40
58.0
 40
58.0
 40
59.0
 40
59.0
 40
59.0
 40
60.0
 40
60.0
 40
60.0
 40
61.0
 40
61.0
 40
61.0
 40
62.0
 40
62.0
 40
62.0
 40
63.0
 40
63.0
 40
63.0
 40
64.0
 40
64.0
 40
64.0
 40
65.0
 40
65.0
 40
65.0
 40
66.0
 40
66.0
 40
66.0
 40
67.0
 40
67.0
 40
67.0
 40
68.0
 40
68.0
 40
68.0
 40
69.0
 40
69.0
 40
69.0
 40
70.0
 40
70.0
 40
70.0
 40
71.0
 40
71.0
 40
71.0
 40
72.0
 40
72.0
 40
72.0
 40
73.0
 40
73.0
 40
73.0
 40
74.0
 40
74.0
 40
74.0
 40
75.0
 40
75.0
 40
75.0
 40
76.0
 40
76.0
 40
76.0
 40
77.0
 40
77.0
 40
77.0
 40
78.0
 40
78.0
 40
78.0
 40
79.0
 40
79.0
 40
79.0
 40
80.0
 40
80.0
 40
80.0
 40
81.0
 40
81.0
 40
81.0
 40
82.0
 40
82.0
 40
82.0
 40
83.0
 40
83.0
 40
83.0
 40
84.0
 40
84.0
 40
84.0
 40
85.0
 40
85.0
 40
85.0
 40
86.0
 40
86.0
 40
86.0
 40
87.0
 40
87.0
 40
87.0
 40
88.0
 40
88.0
 40
88.0
 40
89.0
 40
89.0
 40
89.0
 40
90.0
 40
90.0
 40
90.0
 40
91.0
 40
91.0
 40
91.0
 40
92.0
 40
92.0
 40
92.0
 40
93.0
 40
93.0
 40
93.0
 40
94.0
 40
94.0
 40
94.0
 40
95.0
 40
95.0
 40
95.0
 40
96.0
 40
96.0
 40
96.0
 40
97.0
 40
97.0
 40
97.0
 40
98.0
 40
98.0
 40
98.0
 40
99.0
 40
99.0
 40
99.0
 40
100.0
 40
100.0
 40
100.0
 40
101.0
 40
101.0
 40
101.0
 40
102.0
 40
102.0
 40
102.0
 40
103.0
 40
103.0
 40
103.0
 40
104.0
 40
104.0
 40
104.0
 40
105.0
 40
105.0
 40
105.0
 40
106.0
 40
106.0
 40
106.0
 40
107.0
 40
107.0
 40
107.0
 40
108.0
 40
108.0
 40
108.0
 40
109.0
 40
109.0
 40
109.0
 40
110.0
 40
110.0
 40
110.0
 40
111.0
 40
111.0
 40
111.0
 40
112.0
 40
112.0
 40
112.0
 40
113.0
 40
113.0
 40
113.0
 40
114.0
 40
114.0
 40
114.0
 40
115.0
 40
115.0
 40
115.0
 40
116.0
 40
116.0
 40
116.0
 40
117.0
 40
117.0
 40
117.0
 40
118.0
 40
118.0
 40
118.0
 40
119.0
 40
119.0
 40
119.0
 40
120.0
 40
120.0
 40
120.0
 40
121.0
 40
121.0
 40
121.0
 40
122.0
 40
122.0
 40
122.0
 40
123.0
 40
123.0
 40
123.0
 40
124.0
 40
124.0
 40
124.0
 40
125.0
 40
125.0
 40
125.0
 40
126.0
 40
126.0
 40
126.0
 40
127.0
 40
127.0
 40
127.0
 40
128.0
 40
128.0
 40
128.0
 40
129.0
 40
129.0
 40
129.0
 40
130.0
 40
130.0
 40
130.0
 40
131.0
 40
131.0
 40
131.0
 40
132.0
 40
132.0
 40
132.0
 40
133.0
 40
133.0
 40
133.0
 40
134.0
 40
134.0
 40
134.0
 40
135.0
 40
135.0
 40
135.0
 40
136.0
 40
136.0
 40
136.0
 40
137.0
 40
137.0
 40
137.0
 40
138.0
 40
138.0
 40
138.0
 40
139.0
 40
139.0
 40
139.0
 40
140.0
 40
140.0
 40
140.0
 40
141.0
 40
141.0
 40
141.0
 40
142.0
 40
142.0
 40
142.0
 40
143.0
 40
143.0
 40
143.0
 40
144.0
 40
144.0
 40
144.0
 40
145.0
 40
145.0
 40
145.0
 40
146.0
 40
146.0
 40
146.0
 40
147.0
 40
147.0
 40
147.0
 40
148.0
 40
148.0
 40
148.0
 40
149.0
 40
149.0
 40
149.0
 40
150.0
 40
150.0
 40
150.0
 40
151.0
 40
151.0
 40
151.0
 40
152.0
 40
152.0
 40
152.0
 40
153.0
 40
153.0
 40
153.0
 40
154.0
 40
154.0
 40
154.0
 40
155.0
 40
155.0
 40
155.0
 40
156.0
 40
156.0
 40
156.0
 40
157.0
 40
157.0
 40
157.0
 40
158.0
 40
158.0
 40
158.0
 40
159.0
 40
159.0
 40
159.0
 40
160.0
 40
160.0
 40
160.0
 40
161.0
 40
161.0
 40
161.0
 40
162.0
 40
162.0
 40
162.0
 40
163.0
 40
163.0
 40
163.0
 40
164.0
 40
164.0
 40
164.0
 40
165.0
 40
165.0
 40
165.0
 40
166.0
 40
166.0
 40
166.0
 40
167.0
 40
167.0
 40
167.0
 40
168.0
 40
168.0
 40
168.0
 40
169.0
 40
169.0
 40
169.0
 40
170.0
 40
170.0
 40
170.0
 40
171.0
 40
171.0
 40
171.0
 40
172.0
 40
172.0
 40
172.0
 40
173.0
 40
173.0
 40
173.0
 40
174.0
 40
174.0
 40
174.0
 40
175.0
 40
175.0
 40
175.0
 40
176.0
 40
176.0
 40
176.0
 40
177.0
 40
177.0
 40
177.0
 40
178.0
 40
178.0
 40
178.0
 40
179.0
 40
179.0
 40
179.0
 40
180.0
 40
180.0
 40
180.0
 40
181.0
 40
181.0
 40
181.0
 40
182.0
 40
182.0
 40
182.0
 40
183.0
 40
183.0
 40
183.0
 40
184.0
 40
184.0
 40
184.0
 40
185.0
 40
185.0
 40
185.0
 40
186.0
 40
186.0
 40
186.0
 40
187.0
 40
187.0
 40
187.0
 40
188.0
 40
188.0
 40
188.0
 40
189.0
 40
189.0
 40
189.0
 40
190.0
 40
190.0
 40
190.0
 40
191.0
 40
191.0
 40
191.0
 40
192.0
 40
192.0
 40
192.0
 40
193.0
 40
193.0
 40
193.0
 40
194.0
 40
194.0
 40
194.0
 40
195.0
 40
195.0
 40
195.0
 40
196.0
 40
196.0
 40
196.0
 40
197.0
 40
197.0
 40
197.0
 40
198.0
 40
198.0
 40
198.0
 40
199.0
 40
199.0
 40
199.0
 40
200.0
 40
200.0
 40
200.0
 40
201.0
 40
201.0
 40
201.0
 40
202.0
 40
202.0
 40
202.0
 40
203.0
 40
203.0
 40
203.0
 40
204.0
 40
204.0
 40
204.0
 40
205.0
 40
205.0
 40
205.0
 40
206.0
 40
206.0
 40
206.0
 40
207.0
 40
207.0
 40
207.0
 40
208.0
 40
208.0
 40
208.0
 40
209.0
 40
209.0
 40
209.0
 40
210.0
 40
210.0
 40
210.0
 40
211.0
 40
211.0
 40
211.0
 40
212.0
 40
212.0
 40
212.0
 40
213.0
 40
213.0
 40
213.0
 40
214.0
 40
214.0
 40
214.0
 40
215.0
 40
215.0
 40
215.0
 40
216.0
 40
216.0
 40
216.0
 40
217.0
 40
217.0
 40
217.0
 40
218.0
 40
218.0
 40
218.0
 40
219.0
 40
219.0
 40
219.0
 40
220.0
 40
220.0
 40
220.0
 40
221.0
 40
221.0
 40
221.0
 40
222.0
 40
222.0
 40
222.0
 40
223.0
 40
223.0
 40
223.0
 40
224.0
 40
224.0
 40
224.0
 40
225.0
 40
225.0
 40
225.0
 40
226.0
 40
226.0
 40
226.0
 40
227.0
 40
227.0
 40
227.0
 40
228.0
 40
228.0
 40
228.0
 40
229.0
 40
229.0
 40
229.0
 40
229.0
 10
5.299734736765483
 20
-7.355138807419179
 30
0.0
 10
5.302794286655677
 20
-7.354348693415002
 30
0.0
 10
5.29166795836818
 20
-7.310991425432095
 30
0.0
 10
5.288602696810484
 20
-7.311779635546928
 30
0.0
 10
5.288602696810484
 20
-7.311779635546928
 30
0.0
 10
5.288593177364646
 20
-7.311768212211821
 30
0.0
 10
5.288593177364646
 20
-7.311768212211821
 30
0.0
 10
5.227324120105499
 20
-7.310180368647226
 30
0.0
 10
5.166034120065635
 20
-7.310054711962366
 30
0.0
 10
5.104749831693147
 20
-7.310393604233872
 30
0.0
 10
5.108266314983135
 20
-7.159514195586805
 30
0.0
 10
5.10365319153339
 20
-7.008992718102919
 30
0.0
 10
5.094447887414465
 20
-6.863063421288189
 30
0.0
 10
5.093989050125426
 20
-6.802864349740553
 30
0.0
 10
5.088553446555781
 20
-6.743807611692621
 30
0.0
 10
5.078497103979644
 20
-6.686652858921661
 30
0.0
 10
5.078497103979644
 20
-6.686652858921661
 30
0.0
 10
5.246256393974717
 20
-6.660666675691673
 30
0.0
 10
5.246256393974717
 20
-6.660666675691673
 30
0.0
 10
5.246256393974717
 20
-6.660666675691673
 30
0.0
 10
5.215577123949717
 20
-6.645842994643064
 30
0.0
 10
5.215577123949717
 20
-6.645842994643064
 30
0.0
 10
5.16716693411945
 20
-6.637734330684022
 30
0.0
 10
5.117976149730995
 20
-6.636751923874321
 30
0.0
 10
5.068749191448508
 20
-6.63828645854235
 30
0.0
 10
5.018930123635199
 20
-6.419145007728477
 30
0.0
 10
4.897766617094955
 20
-6.233361598996528
 30
0.0
 10
4.715792890584756
 20
-6.131014229086404
 30
0.0
 10
4.715792890584756
 20
-6.131014229086404
 30
0.0
 10
4.817894658792435
 20
-5.949927714927639
 30
0.0
 10
4.817894658792435
 20
-5.949927714927639
 30
0.0
 10
4.817894658792435
 20
-5.949927714927639
 30
0.0
 10
4.82392237189275
 20
-5.910894179241116
 30
0.0
 10
4.82392237189275
 20
-5.910894179241116
 30
0.0
 10
4.82392237189275
 20
-5.910894179241116
 30
0.0
 10
4.780115786066568
 20
-5.925000094073892
 30
0.0
 10
4.780115786066568
 20
-5.925000094073892
 30
0.0
 10
4.780115786066568
 20
-5.925000094073892
 30
0.0
 10
4.663159874583648
 20
-6.10461870968556
 30
0.0
 10
4.663159874583648
 20
-6.10461870968556
 30
0.0
 10
4.610151792416951
 20
-6.080938136235696
 30
0.0
 10
4.552720975717066
 20
-6.063784094847784
 30
0.0
 10
4.49094167616133
 20
-6.054397921258063
 30
0.0
 10
4.438767497449413
 20
-6.045455353844318
 30
0.0
 10
4.388917967409421
 20
-6.044669047618602
 30
0.0
 10
4.341650111078908
 20
-6.050605374039024
 30
0.0
 10
4.341650111078908
 20
-6.050605374039024
 30
0.0
 10
4.311686703380411
 20
-5.930207230943615
 30
0.0
 10
4.311686703380411
 20
-5.930207230943615
 30
0.0
 10
4.311686703380411
 20
-5.930207230943615
 30
0.0
 10
4.274903564688531
 20
-5.902547529136251
 30
0.0
 10
4.274903564688531
 20
-5.902547529136251
 30
0.0
 10
4.274903564688531
 20
-5.902547529136251
 30
0.0
 10
4.267826808657572
 20
-5.941405907019442
 30
0.0
 10
4.267826808657572
 20
-5.941405907019442
 30
0.0
 10
4.267826808657572
 20
-5.941405907019442
 30
0.0
 10
4.289477836256083
 20
-6.060309497119306
 30
0.0
 10
4.289477836256083
 20
-6.060309497119306
 30
0.0
 10
4.093264922671564
 20
-6.107826762930699
 30
0.0
 10
3.949338517259598
 20
-6.276459938053044
 30
0.0
 10
3.888078979446264
 20
-6.474314004098889
 30
0.0
 10
3.888078979446264
 20
-6.474314004098889
 30
0.0
 10
3.737595579745882
 20
-6.431093816135823
 30
0.0
 10
3.737595579745882
 20
-6.431093816135823
 30
0.0
 10
3.737595579745882
 20
-6.431093816135823
 30
0.0
 10
3.695253084688425
 20
-6.449117934872775
 30
0.0
 10
3.695253084688425
 20
-6.449117934872775
 30
0.0
 10
3.695253084688425
 20
-6.449117934872775
 30
0.0
 10
3.725366899631
 20
-6.474673839151389
 30
0.0
 10
3.725366899631
 20
-6.474673839151389
 30
0.0
 10
3.725366899631
 20
-6.474673839151389
 30
0.0
 10
3.873803618477773
 20
-6.527763788552218
 30
0.0
 10
3.873803618477773
 20
-6.527763788552218
 30
0.0
 10
3.850800829571148
 20
-6.628241539301118
 30
0.0
 10
3.848653242591556
 20
-6.733789346899711
 30
0.0
 10
3.871494200919061
 20
-6.83318568860222
 30
0.0
 10
3.88301082648579
 20
-6.882985717523903
 30
0.0
 10
3.894064806984993
 20
-6.934455457244312
 30
0.0
 10
3.904368655152767
 20
-6.986934258222795
 30
0.0
 10
3.836717761408433
 20
-6.986294551463061
 30
0.0
 10
3.769051636550607
 20
-6.986894276550275
 30
0.0
 10
3.701402646695492
 20
-6.987600619430976
 30
0.0
 10
3.668195011857645
 20
-6.988171786180828
 30
0.0
 10
3.683336642396827
 20
-6.987821470574292
 30
0.0
 10
3.655972043410379
 20
-6.98851067845251
 30
0.0
 10
3.652954379081797
 20
-6.989279849675691
 30
0.0
 10
3.66393030012523
 20
-7.032058335352076
 30
0.0
 10
3.666953676121213
 20
-7.031281548572224
 30
0.0
 10
3.694628609041855
 20
-7.031949813669598
 30
0.0
 10
3.679328955701875
 20
-7.031610921398068
 30
0.0
 10
3.712854540030396
 20
-7.032191607593758
 30
0.0
 10
3.779614413645024
 20
-7.032875103804447
 30
0.0
 10
3.846391422262084
 20
-7.03346150166764
 30
0.0
 10
3.913157007544239
 20
-7.032867488247777
 30
0.0
 10
3.981586591957516
 20
-7.402014462581392
 30
0.0
 10
4.008187731388489
 20
-7.812298770130004
 30
0.0
 10
3.883444913215675
 20
-8.054147907029725
 30
0.0
 10
3.879001235901594
 20
-8.06258975159292
 30
0.0
 10
3.874140606860212
 20
-8.070776475007783
 30
0.0
 10
3.869032472227218
 20
-8.078791848397637
 30
0.0
 10
3.833201278118294
 20
-8.044422841168473
 30
0.0
 10
3.795711796545599
 20
-8.011942491992361
 30
0.0
 10
3.753967122686466
 20
-7.98538323812305
 30
0.0
 10
3.753967122686466
 20
-7.98538323812305
 30
0.0
 10
3.721243075696975
 20
-7.975888542851104
 30
0.0
 10
3.721243075696975
 20
-7.975888542851104
 30
0.0
 10
3.721243075696975
 20
-7.975888542851104
 30
0.0
 10
3.838680671138718
 20
-8.119742600474586
 30
0.0
 10
3.838680671138718
 20
-8.119742600474586
 30
0.0
 10
3.677276563180738
 20
-8.308362804064169
 30
0.0
 10
3.33427569876724
 20
-8.329617822716248
 30
0.0
 10
3.345660955981404
 20
-7.952563996675281
 30
0.0
 10
3.397757075237526
 20
-7.126426505766529
 30
0.0
 10
3.253703109251596
 20
-6.301398982241658
 30
0.0
 10
3.29326211834781
 20
-5.474753152925561
 30
0.0
 10
3.402514894263959
 20
-5.439578800579031
 30
0.0
 10
3.777999915632083
 20
-5.474012540039868
 30
0.0
 10
3.979041092142223
 20
-5.339312381527634
 30
0.0
 10
4.312905192446869
 20
-5.083814263195007
 30
0.0
 10
4.586880555137845
 20
-4.618770295446666
 30
0.0
 10
4.561465538657583
 20
-4.21590734786792
 30
0.0
 10
4.559717768403035
 20
-3.986178369400553
 30
0.0
 10
4.43445138070946
 20
-3.785175270673752
 30
0.0
 10
4.214896785946672
 20
-3.751821036370138
 30
0.0
 10
4.199421974803323
 20
-3.749168918761522
 30
0.0
 10
4.18383293030998
 20
-3.748127491387499
 30
0.0
 10
4.169085404828315
 20
-3.747838100234301
 30
0.0
 10
4.169085404828315
 20
-3.747838100234301
 30
0.0
 10
4.16911205927656
 20
-3.747874274128473
 30
0.0
 10
4.16911205927656
 20
-3.747874274128473
 30
0.0
 10
3.32565108084408
 20
-3.801849531991668
 30
0.0
 10
4.057921124189281
 20
-4.71310038807778
 30
0.0
 10
3.307221433714883
 20
-4.992726493814163
 30
0.0
 10
3.305947731862691
 20
-4.945331076909446
 30
0.0
 10
3.315568083819723
 20
-3.842059671182912
 30
0.0
 10
3.322050826430793
 20
-2.859963195331526
 30
0.0
 10
3.322050826430793
 20
-2.859963195331526
 30
0.0
 10
3.594365997768793
 20
-2.621689562286115
 30
0.0
 10
3.594365997768793
 20
-2.621689562286115
 30
0.0
 10
3.594365997768793
 20
-2.621689562286115
 30
0.0
 10
3.613016496041395
 20
-2.586875044992085
 30
0.0
 10
3.613016496041395
 20
-2.586875044992085
 30
0.0
 10
3.613016496041395
 20
-2.586875044992085
 30
0.0
 10
3.567010918228157
 20
-2.585629901477356
 30
0.0
 10
3.567010918228157
 20
-2.585629901477356
 30
0.0
 10
3.567010918228157
 20
-2.585629901477356
 30
0.0
 10
3.322616281513218
 20
-2.773368604383058
 30
0.0
 10
3.322616281513218
 20
-2.773368604383058
 30
0.0
 10
3.327438832771324
 20
-2.026036893843613
 30
0.0
 10
3.330167105946556
 20
-1.370499295565979
 30
0.0
 10
3.324461150115212
 20
-1.33863390259056
 30
0.0
 10
3.28591501005528
 20
-1.123416367348202
 30
0.0
 10
3.280191919221529
 20
-0.94840516351903
 30
0.0
 10
3.212708567723793
 20
-0.8215128544776336
 30
0.0
 10
3.212708567723793
 20
-0.8215128544776336
 30
0.0
 10
3.291799931468151
 20
-0.7256558427351365
 30
0.0
 10
3.291799931468151
 20
-0.7256558427351365
 30
0.0
 10
3.291799931468151
 20
-0.7256558427351365
 30
0.0
 10
3.32023261227702
 20
-0.7042256662798536
 30
0.0
 10
3.32023261227702
 20
-0.7042256662798536
 30
0.0
 10
3.32023261227702
 20
-0.7042256662798536
 30
0.0
 10
3.272559227554085
 20
-0.6983997654311148
 30
0.0
 10
3.272559227554085
 20
-0.6983997654311148
 30
0.0
 10
3.272559227554085
 20
-0.6983997654311148
 30
0.0
 10
3.191781018008416
 20
-0.7866945294051422
 30
0.0
 10
3.191781018008416
 20
-0.7866945294051422
 30
0.0
 10
3.154097339740726
 20
-0.7313180091155623
 30
0.0
 10
3.100777019750744
 20
-0.6867327326202838
 30
0.0
 10
3.021805601023895
 20
-0.6539039717266633
 30
0.0
 10
3.021805601023895
 20
-0.6539039717266633
 30
0.0
 10
3.10783664077927
 20
-0.469765523234451
 30
0.0
 10
3.10783664077927
 20
-0.469765523234451
 30
0.0
 10
3.10783664077927
 20
-0.469765523234451
 30
0.0
 10
3.110873343999376
 20
-0.430385479719727
 30
0.0
 10
3.110873343999376
 20
-0.430385479719727
 30
0.0
 10
3.110873343999376
 20
-0.430385479719727
 30
0.0
 10
3.068271920015377
 20
-0.4477908344774985
 30
0.0
 10
3.068271920015377
 20
-0.4477908344774985
 30
0.0
 10
3.068271920015377
 20
-0.4477908344774985
 30
0.0
 10
2.966265346266053
 20
-0.6341320827351384
 30
0.0
 10
2.966265346266053
 20
-0.6341320827351384
 30
0.0
 10
2.954228958956921
 20
-0.6304537688659668
 30
0.0
 10
2.941846063819639
 20
-0.6269239583516663
 30
0.0
 10
2.928804423030821
 20
-0.6236683078775008
 30
0.0
 10
2.877014829930456
 20
-0.6148342621459683
 30
0.0
 10
2.828541811757734
 20
-0.6113044516318066
 30
0.0
 10
2.782962705117648
 20
-0.6121650095349953
 30
0.0
 10
2.782962705117648
 20
-0.6121650095349953
 30
0.0
 10
2.803833138158148
 20
-0.5078109404434674
 30
0.0
 10
2.803833138158148
 20
-0.5078109404434674
 30
0.0
 10
2.803833138158148
 20
-0.5078109404434674
 30
0.0
 10
2.818755821443169
 20
-0.4754829024005479
 30
0.0
 10
2.818755821443169
 20
-0.4754829024005479
 30
0.0
 10
2.818755821443169
 20
-0.4754829024005479
 30
0.0
 10
2.773991579366237
 20
-0.4928901610477775
 30
0.0
 10
2.773991579366237
 20
-0.4928901610477775
 30
0.0
 10
2.773991579366237
 20
-0.4928901610477775
 30
0.0
 10
2.743232345996375
 20
-0.6141183998194416
 30
0.0
 10
2.743232345996375
 20
-0.6141183998194416
 30
0.0
 10
2.635575029201517
 20
-0.6229219833243052
 30
0.0
 10
2.546261684523516
 20
-0.6591092047072177
 30
0.0
 10
2.473896761203554
 20
-0.7168484514520767
 30
0.0
 10
2.473896761203554
 20
-0.7168484514520767
 30
0.0
 10
2.353605235901366
 20
-0.5695559699943007
 30
0.0
 10
2.353605235901366
 20
-0.5695559699943007
 30
0.0
 10
2.353605235901366
 20
-0.5695559699943007
 30
0.0
 10
2.308536371557895
 20
-0.5602383364145882
 30
0.0
 10
2.308536371557895
 20
-0.5602383364145882
 30
0.0
 10
2.308536371557895
 20
-0.5602383364145882
 30
0.0
 10
2.318724082486571
 20
-0.5983979869737494
 30
0.0
 10
2.318724082486571
 20
-0.5983979869737494
 30
0.0
 10
2.318724082486571
 20
-0.5983979869737494
 30
0.0
 10
2.431072582186946
 20
-0.7554364770737467
 30
0.0
 10
2.431072582186946
 20
-0.7554364770737467
 30
0.0
 10
2.308353598197932
 20
-0.8800460230047267
 30
0.0
 10
2.244179206071092
 20
-1.075977160992781
 30
0.0
 10
2.229713456186017
 20
-1.304729444317773
 30
0.0
 10
2.227716276450615
 20
-1.343326989385282
 30
0.0
 10
2.225781925057643
 20
-1.38549051886111
 30
0.0
 10
2.223908498118034
 20
-1.430803081017921
 30
0.0
 10
2.223908498118034
 20
-1.430803081017921
 30
0.0
 10
2.009027951258342
 20
-1.422745822066253
 30
0.0
 10
2.009027951258342
 20
-1.422745822066253
 30
0.0
 10
2.009027951258342
 20
-1.422745822066253
 30
0.0
 10
1.998482309166497
 20
-1.477831047313329
 30
0.0
 10
1.998482309166497
 20
-1.477831047313329
 30
0.0
 10
1.998482309166497
 20
-1.477831047313329
 30
0.0
 10
2.221201167723633
 20
-1.499758138841116
 30
0.0
 10
2.221201167723633
 20
-1.499758138841116
 30
0.0
 10
2.213204833225366
 20
-1.713252654387778
 30
0.0
 10
2.206354640005328
 20
-1.987831549944442
 30
0.0
 10
2.200332638572389
 20
-2.305472610663476
 30
0.0
 10
2.200332638572389
 20
-2.305472610663476
 30
0.0
 10
2.003262974862865
 20
-2.270410587777784
 30
0.0
 10
2.003262974862865
 20
-2.270410587777784
 30
0.0
 10
2.003262974862865
 20
-2.270410587777784
 30
0.0
 10
1.96300904622088
 20
-2.292718457138752
 30
0.0
 10
1.96300904622088
 20
-2.292718457138752
 30
0.0
 10
1.96300904622088
 20
-2.292718457138752
 30
0.0
 10
1.995605532636268
 20
-2.3150187109432
 30
0.0
 10
1.995605532636268
 20
-2.3150187109432
 30
0.0
 10
1.995605532636268
 20
-2.3150187109432
 30
0.0
 10
2.199226478966819
 20
-2.364820643753887
 30
0.0
 10
2.199226478966819
 20
-2.364820643753887
 30
0.0
 10
2.198624849990311
 20
-2.397655116315137
 30
0.0
 10
2.198027028792113
 20
-2.430881790044446
 30
0.0
 10
2.197442534818038
 20
-2.464565397173752
 30
0.0
 10
2.197442534818038
 20
-2.464565397173752
 30
0.0
 10
1.880243176385597
 20
-2.455948394807365
 30
0.0
 10
1.880243176385597
 20
-2.455948394807365
 30
0.0
 10
1.880243176385597
 20
-2.455948394807365
 30
0.0
 10
1.835659803779537
 20
-2.490233630913192
 30
0.0
 10
1.835659803779537
 20
-2.490233630913192
 30
0.0
 10
1.835659803779537
 20
-2.490233630913192
 30
0.0
 10
1.8790799001051
 20
-2.51129064509194
 30
0.0
 10
1.8790799001051
 20
-2.51129064509194
 30
0.0
 10
1.8790799001051
 20
-2.51129064509194
 30
0.0
 10
2.196153601852504
 20
-2.540233568197221
 30
0.0
 10
2.196153601852504
 20
-2.540233568197221
 30
0.0
 10
2.195319698397598
 20
-2.590075482680554
 30
0.0
 10
2.194499122167068
 20
-2.640678952830285
 30
0.0
 10
2.193697584828038
 20
-2.692156308107365
 30
0.0
 10
2.193697584828038
 20
-2.692156308107365
 30
0.0
 10
2.071783945956339
 20
-2.696478136514858
 30
0.0
 10
2.071783945956339
 20
-2.696478136514858
 30
0.0
 10
2.071783945956339
 20
-2.696478136514858
 30
0.0
 10
2.007940830544436
 20
-2.69043138452264
 30
0.0
 10
2.007940830544436
 20
-2.69043138452264
 30
0.0
 10
2.007940830544436
 20
-2.69043138452264
 30
0.0
 10
2.059606670848982
 20
-2.729164105720972
 30
0.0
 10
2.059606670848982
 20
-2.729164105720972
 30
0.0
 10
2.059606670848982
 20
-2.729164105720972
 30
0.0
 10
2.193141649191426
 20
-2.728189314467916
 30
0.0
 10
2.193141649191426
 20
-2.728189314467916
 30
0.0
 10
2.190369586565364
 20
-2.908898858571673
 30
0.0
 10
2.187776489520982
 20
-3.098962210149441
 30
0.0
 10
2.18532808805311
 20
-3.29600902718889
 30
0.0
 10
2.18532808805311
 20
-3.29600902718889
 30
0.0
 10
2.047010540125055
 20
-3.290824736989167
 30
0.0
 10
2.047010540125055
 20
-3.290824736989167
 30
0.0
 10
2.047010540125055
 20
-3.290824736989167
 30
0.0
 10
2.036464898033223
 20
-3.345909962236242
 30
0.0
 10
2.036464898033223
 20
-3.345909962236242
 30
0.0
 10
2.036464898033223
 20
-3.345909962236242
 30
0.0
 10
2.184536070160068
 20
-3.360486137693063
 30
0.0
 10
2.184536070160068
 20
-3.360486137693063
 30
0.0
 10
2.181394653035643
 20
-3.618383156375141
 30
0.0
 10
2.178481702611382
 20
-3.887526448362084
 30
0.0
 10
2.175705832206859
 20
-4.162484217863051
 30
0.0
 10
2.175705832206859
 20
-4.162484217863051
 30
0.0
 10
2.040845747004671
 20
-4.138489502700698
 30
0.0
 10
2.040845747004671
 20
-4.138489502700698
 30
0.0
 10
2.040845747004671
 20
-4.138489502700698
 30
0.0
 10
2.000593722251905
 20
-4.160797372061666
 30
0.0
 10
2.000593722251905
 20
-4.160797372061666
 30
0.0
 10
2.000593722251905
 20
-4.160797372061666
 30
0.0
 10
2.033190208667166
 20
-4.183097625865836
 30
0.0
 10
2.033190208667166
 20
-4.183097625865836
 30
0.0
 10
2.033190208667166
 20
-4.183097625865836
 30
0.0
 10
2.175147992681332
 20
-4.21781885259083
 30
0.0
 10
2.175147992681332
 20
-4.21781885259083
 30
0.0
 10
2.174771022626348
 20
-4.255439702515976
 30
0.0
 10
2.1743978603497
 20
-4.293174785790976
 30
0.0
 10
2.174026601962269
 20
-4.330986024632781
 30
0.0
 10
2.174026601962269
 20
-4.330986024632781
 30
0.0
 10
1.917827852416622
 20
-4.324025405841111
 30
0.0
 10
1.917827852416622
 20
-4.324025405841111
 30
0.0
 10
1.917827852416622
 20
-4.324025405841111
 30
0.0
 10
1.873242575921343
 20
-4.358310641946951
 30
0.0
 10
1.873242575921343
 20
-4.358310641946951
 30
0.0
 10
1.873242575921343
 20
-4.358310641946951
 30
0.0
 10
1.916662672246907
 20
-4.37936765612556
 30
0.0
 10
1.916662672246907
 20
-4.37936765612556
 30
0.0
 10
1.916662672246907
 20
-4.37936765612556
 30
0.0
 10
2.173322162970812
 20
-4.402796916205552
 30
0.0
 10
2.173322162970812
 20
-4.402796916205552
 30
0.0
 10
2.172804305117627
 20
-4.455839268377227
 30
0.0
 10
2.17229215893182
 20
-4.509028220014721
 30
0.0
 10
2.17178191663523
 20
-4.562342828337364
 30
0.0
 10
2.17178191663523
 20
-4.562342828337364
 30
0.0
 10
2.109366718098133
 20
-4.564555147548465
 30
0.0
 10
2.109366718098133
 20
-4.564555147548465
 30
0.0
 10
2.109366718098133
 20
-4.564555147548465
 30
0.0
 10
2.045525506575308
 20
-4.558510299445553
 30
0.0
 10
2.045525506575308
 20
-4.558510299445553
 30
0.0
 10
2.045525506575308
 20
-4.558510299445553
 30
0.0
 10
2.097189442990788
 20
-4.597243020643746
 30
0.0
 10
2.097189442990788
 20
-4.597243020643746
 30
0.0
 10
2.097189442990788
 20
-4.597243020643746
 30
0.0
 10
2.171452543809512
 20
-4.596700412231383
 30
0.0
 10
2.171452543809512
 20
-4.596700412231383
 30
0.0
 10
2.154433678552424
 20
-6.38283403354972
 30
0.0
 10
2.140855141018745
 20
-8.290942218192917
 30
0.0
 10
2.105836907583858
 20
-8.905984093904584
 30
0.0
 10
2.016727279046689
 20
-9.326810235766818
 30
0.0
 10
1.501668142900876
 20
-9.2485432560314
 30
0.0
 10
1.43859229482286
 20
-8.75088376297582
 30
0.0
 10
1.386418116110968
 20
-8.57271019924153
 30
0.0
 10
1.394966578467397
 20
-8.09415623396929
 30
0.0
 10
1.428987173979193
 20
-7.433978857793615
 30
0.0
 10
1.449269305267282
 20
-7.429409523794448
 30
0.0
 10
1.469500031547846
 20
-7.424626954208886
 30
0.0
 10
1.489635563370181
 20
-7.419414105671674
 30
0.0
 10
1.471213531797427
 20
-7.416461173574866
 30
0.0
 10
1.494300091827477
 20
-7.415968066280684
 30
0.0
 10
1.506759142531311
 20
-7.4154121306443
 30
0.0
 10
1.517786468582295
 20
-7.419231332311811
 30
0.0
 10
1.506328863579736
 20
-7.41816515437861
 30
0.0
 10
1.532880501892401
 20
-7.415440688981662
 30
0.0
 10
1.560401219790391
 20
-7.409182605292219
 30
0.0
 10
1.588729186695117
 20
-7.408455319630825
 30
0.0
 10
1.616826783010614
 20
-7.408318239610708
 30
0.0
 10
1.618565033819499
 20
-7.408363932950679
 30
0.0
 10
1.620295669071513
 20
-7.408428665182504
 30
0.0
 10
1.622033919880399
 20
-7.408489589635842
 30
0.0
 10
1.625032545317203
 20
-7.409289223085554
 30
0.0
 10
1.636421610309677
 20
-7.366826783010563
 30
0.0
 10
1.633417273205345
 20
-7.366021437893323
 30
0.0
 10
1.624061561842356
 20
-7.36591291621082
 30
0.0
 10
1.614705850479519
 20
-7.36591291621082
 30
0.0
 10
1.6053482352273
 20
-7.365804394528317
 30
0.0
 10
1.576319637109464
 20
-7.366505025741667
 30
0.0
 10
1.547277711767492
 20
-7.368477454917764
 30
0.0
 10
1.518989726535311
 20
-7.375415227039588
 30
0.0
 10
1.518664161487878
 20
-7.375287666465409
 30
0.0
 10
1.518372866445462
 20
-7.375078238657225
 30
0.0
 10
1.518026358617185
 20
-7.375003986979713
 30
0.0
 10
1.501927071827392
 20
-7.371508446470417
 30
0.0
 10
1.485898228936801
 20
-7.375723657084588
 30
0.0
 10
1.470240644433488
 20
-7.378720378632225
 30
0.0
 10
1.457322756440463
 20
-7.381458171253345
 30
0.0
 10
1.444383925666595
 20
-7.384108384972629
 30
0.0
 10
1.431441287114416
 20
-7.386739559800541
 30
0.0
 10
1.441509053025609
 20
-7.195549105836512
 30
0.0
 10
1.45358922978552
 20
-6.989725359740431
 30
0.0
 10
1.466861241163416
 20
-6.77206132691971
 30
0.0
 10
1.559805302481436
 20
-6.751762060629162
 30
0.0
 10
1.648107682012222
 20
-6.71467049189237
 30
0.0
 10
1.738626188532332
 20
-6.685697106560282
 30
0.0
 10
1.742494891318276
 20
-6.683471460124868
 30
0.0
 10
1.711044546180927
 20
-6.628744166040986
 30
0.0
 10
1.707173939505916
 20
-6.630967908587081
 30
0.0
 10
1.707173939505916
 20
-6.630967908587081
 30
0.0
 10
1.707170131727632
 20
-6.6309698124764
 30
0.0
 10
1.707170131727632
 20
-6.6309698124764
 30
0.0
 10
1.62687931780844
 20
-6.650954937054595
 30
0.0
 10
1.550521938906867
 20
-6.684737546420567
 30
0.0
 10
1.47086702396915
 20
-6.706586578492356
 30
0.0
 10
1.495899358727077
 20
-6.298727825741379
 30
0.0
 10
1.524739471817459
 20
-5.851134906090831
 30
0.0
 10
1.552149764143905
 20
-5.381365485431805
 30
0.0
 10
1.557486365476911
 20
-5.289856956544996
 30
0.0
 10
1.546822682256763
 20
-4.888600891422635
 30
0.0
 10
1.54228571437357
 20
-4.805648440449166
 30
0.0
 10
1.540762603040674
 20
-4.705663796994448
 30
0.0
 10
1.497399623390013
 20
-4.616135312840558
 30
0.0
 10
1.429737306310648
 20
-4.54540963809264
 30
0.0
 10
1.432454156151001
 20
-4.542485264333335
 30
0.0
 10
1.435239546001185
 20
-4.539633238362222
 30
0.0
 10
1.437899279166459
 20
-4.536647940149578
 30
0.0
 10
1.476921391517863
 20
-4.492839450434164
 30
0.0
 10
1.510829657568845
 20
-4.444739594537913
 30
0.0
 10
1.551256840125006
 20
-4.402145786110698
 30
0.0
 10
1.553998440524361
 20
-4.398615975596385
 30
0.0
 10
1.504006118796901
 20
-4.359831849390692
 30
0.0
 10
1.501264518397546
 20
-4.363367371572496
 30
0.0
 10
1.501264518397546
 20
-4.363367371572496
 30
0.0
 10
1.501260710619236
 20
-4.363367371572496
 30
0.0
 10
1.501260710619236
 20
-4.363367371572496
 30
0.0
 10
1.457376065337106
 20
-4.405068255980837
 30
0.0
 10
1.422550124708133
 20
-4.45478451377917
 30
0.0
 10
1.382793111138476
 20
-4.500146577054162
 30
0.0
 10
1.382389486635146
 20
-4.500609222121662
 30
0.0
 10
1.381966823240292
 20
-4.50104521274069
 30
0.0
 10
1.381563198737088
 20
-4.501504050029729
 30
0.0
 10
1.284308732346643
 20
-4.423697811472493
 30
0.0
 10
1.154954694613151
 20
-4.378360498756668
 30
0.0
 10
1.02798623000505
 20
-4.382021677623331
 30
0.0
 10
1.021547276844785
 20
-4.31382817546652
 30
0.0
 10
1.01353190345488
 20
-4.245390975496522
 30
0.0
 10
0.9921835942337162
 20
-4.180517856045551
 30
0.0
 10
0.9921835942337162
 20
-4.180517856045551
 30
0.0
 10
0.9728781580880018
 20
-4.152439298621807
 30
0.0
 10
0.9728781580880018
 20
-4.152439298621807
 30
0.0
 10
0.9728781580880018
 20
-4.152439298621807
 30
0.0
 10
0.9725011880330182
 20
-4.386853748327225
 30
0.0
 10
0.9725011880330182
 20
-4.386853748327225
 30
0.0
 10
0.8284338948228398
 20
-4.407918378062643
 30
0.0
 10
0.6943467886220434
 20
-4.496776693229864
 30
0.0
 10
0.6223950092511232
 20
-4.678188772436114
 30
0.0
 10
0.585480502206691
 20
-4.661261293859032
 30
0.0
 10
0.5487868463054989
 20
-4.643827380763747
 30
0.0
 10
0.511346865851288
 20
-4.628167892371253
 30
0.0
 10
0.5029411951823022
 20
-4.623488132800554
 30
0.0
 10
0.48771008185228
 20
-4.617132950763613
 30
0.0
 10
0.4836052968097546
 20
-4.615638397768192
 30
0.0
 10
0.4641742039790036
 20
-4.602705278661801
 30
0.0
 10
0.4430562653470184
 20
-4.592595627189035
 30
0.0
 10
0.4224447612332116
 20
-4.581720612271384
 30
0.0
 10
0.4200553803295103
 20
-4.579786260878475
 30
0.0
 10
0.3926831657863153
 20
-4.613641218032777
 30
0.0
 10
0.3950782583574184
 20
-4.615575569425699
 30
0.0
 10
0.4142009211433206
 20
-4.626747591053193
 30
0.0
 10
0.4347248463555186
 20
-4.63549786566125
 30
0.0
 10
0.4538989141488451
 20
-4.646433805032226
 30
0.0
 10
0.4716507767348553
 20
-4.658675812371257
 30
0.0
 10
0.4665045643185597
 20
-4.650022636110697
 30
0.0
 10
0.4862669338642465
 20
-4.665158554982364
 30
0.0
 10
0.5266826930853514
 20
-4.683454929869994
 30
0.0
 10
0.5662797799651191
 20
-4.703767523384727
 30
0.0
 10
0.6066726925162886
 20
-4.722208593849031
 30
0.0
 10
0.6040757876935711
 20
-4.730421971712354
 30
0.0
 10
0.6015588462157413
 20
-4.738749582925417
 30
0.0
 10
0.5992018314279398
 20
-4.747298045281948
 30
0.0
 10
0.5961898787668612
 20
-4.857308569086109
 30
0.0
 10
0.5916548147729119
 20
-5.230284264533061
 30
0.0
 10
0.5886657087818953
 20
-5.342446183095275
 30
0.0
 10
0.5791196085022218
 20
-5.701165556465273
 30
0.0
 10
0.580692220953564
 20
-6.017346334193765
 30
0.0
 10
0.5902897262406743
 20
-6.307240114203751
 30
0.0
 10
0.5358994205391809
 20
-6.306735583574714
 30
0.0
 10
0.4815034031703109
 20
-6.306846009146384
 30
0.0
 10
0.4271207130254121
 20
-6.308022612651105
 30
0.0
 10
0.4225037817973569
 20
-6.308131134333608
 30
0.0
 10
0.4178849466799319
 20
-6.308300580469298
 30
0.0
 10
0.4132623037843738
 20
-6.308411006040968
 30
0.0
 10
0.4102636783475443
 20
-6.30918017726415
 30
0.0
 10
0.4211291738193065
 20
-6.35148840231654
 30
0.0
 10
0.424123991477826
 20
-6.350719231093485
 30
0.0
 10
0.4288132704942755
 20
-6.350829656665003
 30
0.0
 10
0.4335006456215322
 20
-6.351001006689986
 30
0.0
 10
0.4381937324164179
 20
-6.35110952837249
 30
0.0
 10
0.4893969276534891
 20
-6.352209976310556
 30
0.0
 10
0.5406172578932456
 20
-6.352367999111392
 30
0.0
 10
0.5918337803545657
 20
-6.351998644613205
 30
0.0
 10
0.6007059038691851
 20
-6.596475148562225
 30
0.0
 10
0.6152973104394227
 20
-6.822464888707095
 30
0.0
 10
0.6337421886819862
 20
-7.039824299261252
 30
0.0
 10
0.6337421886819862
 20
-7.039824299261252
 30
0.0
 10
0.3560085487769002
 20
-7.06258719813291
 30
0.0
 10
0.3560085487769002
 20
-7.06258719813291
 30
0.0
 10
0.3560085487769002
 20
-7.06258719813291
 30
0.0
 10
0.3227723556016018
 20
-7.094420224992644
 30
0.0
 10
0.3227723556016018
 20
-7.094420224992644
 30
0.0
 10
0.3227723556016018
 20
-7.094420224992644
 30
0.0
 10
0.3599800615776682
 20
-7.107671293589722
 30
0.0
 10
0.3599800615776682
 20
-7.107671293589722
 30
0.0
 10
0.3599800615776682
 20
-7.107671293589722
 30
0.0
 10
0.6391949272541902
 20
-7.102652641747504
 30
0.0
 10
0.6391949272541902
 20
-7.102652641747504
 30
0.0
 10
0.6417385231802655
 20
-7.131290942586373
 30
0.0
 10
0.6443506591164502
 20
-7.159790259515981
 30
0.0
 10
0.6470199117274104
 20
-7.188182958652229
 30
0.0
 10
0.6470199117274104
 20
-7.188182958652229
 30
0.0
 10
0.2843671033399965
 20
-7.273359152171956
 30
0.0
 10
0.2843671033399965
 20
-7.273359152171956
 30
0.0
 10
0.2843671033399965
 20
-7.273359152171956
 30
0.0
 10
0.25
 20
-7.317879696435561
 30
0.0
 10
0.25
 20
-7.317879696435561
 30
0.0
 10
0.25
 20
-7.317879696435561
 30
0.0
 10
0.2973535313429668
 20
-7.327166867788466
 30
0.0
 10
0.2973535313429668
 20
-7.327166867788466
 30
0.0
 10
0.2973535313429668
 20
-7.327166867788466
 30
0.0
 10
0.6545973906091199
 20
-7.267015393469996
 30
0.0
 10
0.6545973906091199
 20
-7.267015393469996
 30
0.0
 10
0.659482770209681
 20
-7.316634552920832
 30
0.0
 10
0.6645490192810889
 20
-7.365975744553477
 30
0.0
 10
0.669759963929184
 20
-7.415164625052638
 30
0.0
 10
0.669759963929184
 20
-7.415164625052638
 30
0.0
 10
0.530909327034452
 20
-7.457093976160977
 30
0.0
 10
0.530909327034452
 20
-7.457093976160977
 30
0.0
 10
0.530909327034452
 20
-7.457093976160977
 30
0.0
 10
0.467635474483283
 20
-7.467529192681265
 30
0.0
 10
0.467635474483283
 20
-7.467529192681265
 30
0.0
 10
0.467635474483283
 20
-7.467529192681265
 30
0.0
 10
0.5274709032002344
 20
-7.491805683440007
 30
0.0
 10
0.5274709032002344
 20
-7.491805683440007
 30
0.0
 10
0.5274709032002344
 20
-7.491805683440007
 30
0.0
 10
0.6737086300599913
 20
-7.452094363210411
 30
0.0
 10
0.6737086300599913
 20
-7.452094363210411
 30
0.0
 10
0.7134846825213117
 20
-7.82180298484804
 30
0.0
 10
0.7614208039491991
 20
-8.184726145497077
 30
0.0
 10
0.8073940156466758
 20
-8.59451163408418
 30
0.0
 10
0.8073940156466758
 20
-8.59451163408418
 30
0.0
 10
0.6065241891613166
 20
-8.61097456370486
 30
0.0
 10
0.6065241891613166
 20
-8.61097456370486
 30
0.0
 10
0.6065241891613166
 20
-8.61097456370486
 30
0.0
 10
0.5812043671393844
 20
-8.635226303904448
 30
0.0
 10
0.5812043671393844
 20
-8.635226303904448
 30
0.0
 10
0.5812043671393844
 20
-8.635226303904448
 30
0.0
 10
0.6095513729355844
 20
-8.645322628153053
 30
0.0
 10
0.6095513729355844
 20
-8.645322628153053
 30
0.0
 10
0.6095513729355844
 20
-8.645322628153053
 30
0.0
 10
0.8126582691912365
 20
-8.641672872621534
 30
0.0
 10
0.8126582691912365
 20
-8.641672872621534
 30
0.0
 10
0.815114286215703
 20
-8.663822719181654
 30
0.0
 10
0.8175569760160467
 20
-8.686155339101662
 30
0.0
 10
0.8199958580380805
 20
-8.708596480704298
 30
0.0
 10
0.8199958580380805
 20
-8.708596480704298
 30
0.0
 10
0.5519434945432649
 20
-8.771556191543064
 30
0.0
 10
0.5519434945432649
 20
-8.771556191543064
 30
0.0
 10
0.5519434945432649
 20
-8.771556191543064
 30
0.0
 10
0.5257612107289635
 20
-8.805472073150693
 30
0.0
 10
0.5257612107289635
 20
-8.805472073150693
 30
0.0
 10
0.5257612107289635
 20
-8.805472073150693
 30
0.0
 10
0.561838006540155
 20
-8.812550733070692
 30
0.0
 10
0.561838006540155
 20
-8.812550733070692
 30
0.0
 10
0.561838006540155
 20
-8.812550733070692
 30
0.0
 10
0.8263948295258261
 20
-8.768003534358892
 30
0.0
 10
0.8263948295258261
 20
-8.768003534358892
 30
0.0
 10
0.8303949006640575
 20
-8.805494919820552
 30
0.0
 10
0.8343702212432365
 20
-8.843399449231532
 30
0.0
 10
0.8383112718172975
 20
-8.881779950933883
 30
0.0
 10
0.8383112718172975
 20
-8.881779950933883
 30
0.0
 10
0.7397773919071571
 20
-8.911537738602494
 30
0.0
 10
0.7397773919071571
 20
-8.911537738602494
 30
0.0
 10
0.7397773919071571
 20
-8.911537738602494
 30
0.0
 10
0.6915709182176972
 20
-8.919486475871533
 30
0.0
 10
0.6915709182176972
 20
-8.919486475871533
 30
0.0
 10
0.6915709182176972
 20
-8.919486475871533
 30
0.0
 10
0.7371576404143777
 20
-8.937982759121672
 30
0.0
 10
0.7371576404143777
 20
-8.937982759121672
 30
0.0
 10
0.7371576404143777
 20
-8.937982759121672
 30
0.0
 10
0.8411594900100883
 20
-8.909740467229438
 30
0.0
 10
0.8411594900100883
 20
-8.909740467229438
 30
0.0
 10
0.8440096120919204
 20
-8.937780946869982
 30
0.0
 10
0.8468483108388479
 20
-8.965983257089722
 30
0.0
 10
0.8496584512481856
 20
-8.994537786805141
 30
0.0
 10
0.9499953141987589
 20
-9.411864580379843
 30
0.0
 10
1.184023274403494
 20
-9.627556184024444
 30
0.0
 10
1.524432945661677
 20
-9.638315061703047
 30
0.0
 10
1.734399554583357
 20
-9.641753485537214
 30
0.0
 10
2.027990687354253
 20
-9.557390252691372
 30
0.0
 10
2.064952791627775
 20
-9.872660971398469
 30
0.0
 10
2.065337377239353
 20
-9.966067677783888
 30
0.0
 10
2.065213624443534
 20
-10.05953721251181
 30
0.0
 10
2.064903290509467
 20
-10.15302769002056
 30
0.0
 10
2.029591858143072
 20
-10.15321998282639
 30
0.0
 10
1.99428042577655
 20
-10.15359695288124
 30
0.0
 10
1.958978512855967
 20
-10.1543204307643
 30
0.0
 10
1.935326497743618
 20
-10.15501915808848
 30
0.0
 10
1.911714464303764
 20
-10.15564934540235
 30
0.0
 10
1.888054833634821
 20
-10.15521906645098
 30
0.0
 10
1.864914964708128
 20
-10.15491825196265
 30
0.0
 10
1.841773191892369
 20
-10.15491825196265
 30
0.0
 10
1.81863141907661
 20
-10.15491825196265
 30
0.0
 10
1.815611850858937
 20
-10.15571788541249
 30
0.0
 10
1.826578252456557
 20
-10.19844115830306
 30
0.0
 10
1.82960924400926
 20
-10.19766437152319
 30
0.0
 10
1.852695804039184
 20
-10.19767198708001
 30
0.0
 10
1.875786171847393
 20
-10.19766817930167
 30
0.0
 10
1.898872731877469
 20
-10.19736546092417
 30
0.0
 10
1.922692289236289
 20
-10.19696754808835
 30
0.0
 10
1.946466153255389
 20
-10.19756536928652
 30
0.0
 10
1.970279998946833
 20
-10.19826600049984
 30
0.0
 10
2.001753190754092
 20
-10.1989018994814
 30
0.0
 10
2.033233998118122
 20
-10.19926744620125
 30
0.0
 10
2.064714805481976
 20
-10.19949400901209
 30
0.0
 10
2.062740472416635
 20
-10.655919070505
 30
0.0
 10
2.054271973405068
 20
-11.1131113993318
 30
0.0
 10
2.051012515152504
 20
-11.56961452028028
 30
0.0
 10
2.051012515152504
 20
-11.56961452028028
 30
0.0
 10
3.443300007983402
 20
-11.47002588577208
 30
0.0
 10
3.443300007983402
 20
-11.47002588577208
 30
0.0
 10
3.453409659456308
 20
-10.96806169931167
 30
0.0
 10
3.441822589990402
 20
-10.46455917040501
 30
0.0
 10
3.449360087199617
 20
-9.962246572227235
 30
0.0
 10
3.505185925332398
 20
-9.958524468907221
 30
0.0
 10
3.561025090689428
 20
-9.955017505063045
 30
0.0
 10
3.616959450504686
 20
-9.953490585951663
 30
0.0
 10
3.624854878877209
 20
-9.953189771463332
 30
0.0
 10
3.632748403360387
 20
-9.953444892611666
 30
0.0
 10
3.64063050450866
 20
-9.9537894965507
 30
0.0
 10
3.643417798248063
 20
-9.95498894672543
 30
0.0
 10
3.66033956515773
 20
-9.91558034487318
 30
0.0
 10
3.657552271418328
 20
-9.91438470247681
 30
0.0
 10
3.640329690020407
 20
-9.909855350150286
 30
0.0
 10
3.623143282516695
 20
-9.909114737264593
 30
0.0
 10
3.605174376565603
 20
-9.90961546011542
 30
0.0
 10
3.553443804029409
 20
-9.909640210674599
 30
0.0
 10
3.501745597608962
 20
-9.911915358228194
 30
0.0
 10
3.450146393425307
 20
-9.915679347109846
 30
0.0
 10
3.451189724688422
 20
-9.85592959340541
 30
0.0
 10
3.452594794893027
 20
-9.796202686370988
 30
0.0
 10
3.454285448472673
 20
-9.73649481822819
 30
0.0
 10
3.454285448472673
 20
-9.73649481822819
 30
0.0
 10
3.60697735960601
 20
-9.712842803115816
 30
0.0
 10
3.60697735960601
 20
-9.712842803115816
 30
0.0
 10
3.60697735960601
 20
-9.712842803115816
 30
0.0
 10
3.576296185691969
 20
-9.698019122067358
 30
0.0
 10
3.576296185691969
 20
-9.698019122067358
 30
0.0
 10
3.536459208777286
 20
-9.69133837498306
 30
0.0
 10
3.496087239006859
 20
-9.689592508617503
 30
0.0
 10
3.455606747554106
 20
-9.689988517564162
 30
0.0
 10
3.460219871004003
 20
-9.54356230567694
 30
0.0
 10
3.467003428103301
 20
-9.397273173809733
 30
0.0
 10
3.477158772916078
 20
-9.251202989196674
 30
0.0
 10
3.662216799875649
 20
-8.864505964528613
 30
0.0
 10
3.987774231747835
 20
-9.157463102207076
 30
0.0
 10
4.498909452322146
 20
-8.81500294231695
 30
0.0
 10
4.566587000514851
 20
-8.76322477255154
 30
0.0
 10
4.626902209301559
 20
-8.706347987598898
 30
0.0
 10
4.681071663859812
 20
-8.64547113150805
 30
0.0
 10
4.723619778947168
 20
-8.682339945212636
 30
0.0
 10
4.767576772017592
 20
-8.717752283704865
 30
0.0
 10
4.814412445507413
 20
-8.749695736136244
 30
0.0
 10
4.829793966081499
 20
-8.759152353625016
 30
0.0
 10
4.845792346745561
 20
-8.767531369845553
 30
0.0
 10
4.861682205727018
 20
-8.776098871093735
 30
0.0
 10
4.861682205727018
 20
-8.776098871093735
 30
0.0
 10
4.85087953859771
 20
-8.720661426350842
 30
0.0
 10
4.85087953859771
 20
-8.720661426350842
 30
0.0
 10
4.801751582551863
 20
-8.68673792918667
 30
0.0
 10
4.756320979266749
 20
-8.64867918475319
 30
0.0
 10
4.711381579386575
 20
-8.61006831246166
 30
0.0
 10
4.763390119740961
 20
-8.547293278872075
 30
0.0
 10
4.80918436585691
 20
-8.480546732481672
 30
0.0
 10
4.849143191678043
 20
-8.410365570035285
 30
0.0
 10
4.884445104598752
 20
-8.419013034628481
 30
0.0
 10
4.920329607604294
 20
-8.426660957409164
 30
0.0
 10
4.957089899626226
 20
-8.432669631617904
 30
0.0
 10
4.974902686665599
 20
-8.434822930264847
 30
0.0
 10
4.993050558198345
 20
-8.435927185981402
 30
0.0
 10
5.011135601388509
 20
-8.437221830614437
 30
0.0
 10
5.011135601388509
 20
-8.437221830614437
 30
0.0
 10
4.985804356031571
 20
-8.397826555986386
 30
0.0
 10
4.985804356031571
 20
-8.397826555986386
 30
0.0
 10
4.946190134149345
 20
-8.391140097234459
 30
0.0
 10
4.907826767449377
 20
-8.382317474838045
 30
0.0
 10
4.869926045816909
 20
-8.372697122880961
 30
0.0
 10
5.014623526341059
 20
-8.100745594373747
 30
0.0
 10
5.078436179526307
 20
-7.782470538562367
 30
0.0
 10
5.098505075227902
 20
-7.459380547049578
 30
0.0
 10
5.098505075227902
 20
-7.459380547049578
 30
0.0
 10
5.260249979346605
 20
-7.434327269510832
 30
0.0
 10
5.260249979346605
 20
-7.434327269510832
 30
0.0
 10
5.260249979346605
 20
-7.434327269510832
 30
0.0
 10
5.22957070932163
 20
-7.419501684573333
 30
0.0
 10
5.22957070932163
 20
-7.419501684573333
 30
0.0
 10
5.187197752037617
 20
-7.412403985761657
 30
0.0
 10
5.144223165776995
 20
-7.410861835536959
 30
0.0
 10
5.101155288947211
 20
-7.411581505641657
 30
0.0
 10
5.102055828522881
 20
-7.393208975187513
 30
0.0
 10
5.10277169084937
 20
-7.37483263695473
 30
0.0
 10
5.103407589830996
 20
-7.356448683165556
 30
0.0
 10
5.168855683810029
 20
-7.356882769895416
 30
0.0
 10
5.234307585567345
 20
-7.356837076555419
 30
0.0
 10
5.299734736765483
 20
-7.355138807419179
 30
0.0
  0
SPLINE
  5
42
330
1F
100
AcDbEntity
  8
Layer 1
370
     0
100
AcDbSpline
210
0.0
220
0.0
230
1.0
 70
    11
 71
     3
 72
   395
 73
   391
 74
     0
 42
0.0000000001
 43
0.0000000001
 12
1.0
 22
0.0
 32
0.0
 13
1.0
 23
0.0
 33
0.0
 40
0.0
 40
0.0
 40
0.0
 40
0.0
 40
1.0
 40
1.0
 40
1.0
 40
2.0
 40
2.0
 40
2.0
 40
3.0
 40
3.0
 40
3.0
 40
4.0
 40
4.0
 40
4.0
 40
5.0
 40
5.0
 40
5.0
 40
6.0
 40
6.0
 40
6.0
 40
7.0
 40
7.0
 40
7.0
 40
8.0
 40
8.0
 40
8.0
 40
9.0
 40
9.0
 40
9.0
 40
10.0
 40
10.0
 40
10.0
 40
11.0
 40
11.0
 40
11.0
 40
12.0
 40
12.0
 40
12.0
 40
13.0
 40
13.0
 40
13.0
 40
14.0
 40
14.0
 40
14.0
 40
15.0
 40
15.0
 40
15.0
 40
16.0
 40
16.0
 40
16.0
 40
17.0
 40
17.0
 40
17.0
 40
18.0
 40
18.0
 40
18.0
 40
19.0
 40
19.0
 40
19.0
 40
20.0
 40
20.0
 40
20.0
 40
21.0
 40
21.0
 40
21.0
 40
22.0
 40
22.0
 40
22.0
 40
23.0
 40
23.0
 40
23.0
 40
24.0
 40
24.0
 40
24.0
 40
25.0
 40
25.0
 40
25.0
 40
26.0
 40
26.0
 40
26.0
 40
27.0
 40
27.0
 40
27.0
 40
28.0
 40
28.0
 40
28.0
 40
29.0
 40
29.0
 40
29.0
 40
30.0
 40
30.0
 40
30.0
 40
31.0
 40
31.0
 40
31.0
 40
32.0
 40
32.0
 40
32.0
 40
33.0
 40
33.0
 40
33.0
 40
34.0
 40
34.0
 40
34.0
 40
35.0
 40
35.0
 40
35.0
 40
36.0
 40
36.0
 40
36.0
 40
37.0
 40
37.0
 40
37.0
 40
38.0
 40
38.0
 40
38.0
 40
39.0
 40
39.0
 40
39.0
 40
40.0
 40
40.0
 40
40.0
 40
41.0
 40
41.0
 40
41.0
 40
42.0
 40
42.0
 40
42.0
 40
43.0
 40
43.0
 40
43.0
 40
44.0
 40
44.0
 40
44.0
 40
45.0
 40
45.0
 40
45.0
 40
46.0
 40
46.0
 40
46.0
 40
47.0
 40
47.0
 40
47.0
 40
48.0
 40
48.0
 40
48.0
 40
49.0
 40
49.0
 40
49.0
 40
50.0
 40
50.0
 40
50.0
 40
51.0
 40
51.0
 40
51.0
 40
52.0
 40
52.0
 40
52.0
 40
53.0
 40
53.0
 40
53.0
 40
54.0
 40
54.0
 40
54.0
 40
55.0
 40
55.0
 40
55.0
 40
56.0
 40
56.0
 40
56.0
 40
57.0
 40
57.0
 40
57.0
 40
58.0
 40
58.0
 40
58.0
 40
59.0
 40
59.0
 40
59.0
 40
60.0
 40
60.0
 40
60.0
 40
61.0
 40
61.0
 40
61.0
 40
62.0
 40
62.0
 40
62.0
 40
63.0
 40
63.0
 40
63.0
 40
64.0
 40
64.0
 40
64.0
 40
65.0
 40
65.0
 40
65.0
 40
66.0
 40
66.0
 40
66.0
 40
67.0
 40
67.0
 40
67.0
 40
68.0
 40
68.0
 40
68.0
 40
69.0
 40
69.0
 40
69.0
 40
70.0
 40
70.0
 40
70.0
 40
71.0
 40
71.0
 40
71.0
 40
72.0
 40
72.0
 40
72.0
 40
73.0
 40
73.0
 40
73.0
 40
74.0
 40
74.0
 40
74.0
 40
75.0
 40
75.0
 40
75.0
 40
76.0
 40
76.0
 40
76.0
 40
77.0
 40
77.0
 40
77.0
 40
78.0
 40
78.0
 40
78.0
 40
79.0
 40
79.0
 40
79.0
 40
80.0
 40
80.0
 40
80.0
 40
81.0
 40
81.0
 40
81.0
 40
82.0
 40
82.0
 40
82.0
 40
83.0
 40
83.0
 40
83.0
 40
84.0
 40
84.0
 40
84.0
 40
85.0
 40
85.0
 40
85.0
 40
86.0
 40
86.0
 40
86.0
 40
87.0
 40
87.0
 40
87.0
 40
88.0
 40
88.0
 40
88.0
 40
89.0
 40
89.0
 40
89.0
 40
90.0
 40
90.0
 40
90.0
 40
91.0
 40
91.0
 40
91.0
 40
92.0
 40
92.0
 40
92.0
 40
93.0
 40
93.0
 40
93.0
 40
94.0
 40
94.0
 40
94.0
 40
95.0
 40
95.0
 40
95.0
 40
96.0
 40
96.0
 40
96.0
 40
97.0
 40
97.0
 40
97.0
 40
98.0
 40
98.0
 40
98.0
 40
99.0
 40
99.0
 40
99.0
 40
100.0
 40
100.0
 40
100.0
 40
101.0
 40
101.0
 40
101.0
 40
102.0
 40
102.0
 40
102.0
 40
103.0
 40
103.0
 40
103.0
 40
104.0
 40
104.0
 40
104.0
 40
105.0
 40
105.0
 40
105.0
 40
106.0
 40
106.0
 40
106.0
 40
107.0
 40
107.0
 40
107.0
 40
108.0
 40
108.0
 40
108.0
 40
109.0
 40
109.0
 40
109.0
 40
110.0
 40
110.0
 40
110.0
 40
111.0
 40
111.0
 40
111.0
 40
112.0
 40
112.0
 40
112.0
 40
113.0
 40
113.0
 40
113.0
 40
114.0
 40
114.0
 40
114.0
 40
115.0
 40
115.0
 40
115.0
 40
116.0
 40
116.0
 40
116.0
 40
117.0
 40
117.0
 40
117.0
 40
118.0
 40
118.0
 40
118.0
 40
119.0
 40
119.0
 40
119.0
 40
120.0
 40
120.0
 40
120.0
 40
121.0
 40
121.0
 40
121.0
 40
122.0
 40
122.0
 40
122.0
 40
123.0
 40
123.0
 40
123.0
 40
124.0
 40
124.0
 40
124.0
 40
125.0
 40
125.0
 40
125.0
 40
126.0
 40
126.0
 40
126.0
 40
127.0
 40
127.0
 40
127.0
 40
128.0
 40
128.0
 40
128.0
 40
129.0
 40
129.0
 40
129.0
 40
130.0
 40
130.0
 40
130.0
 40
130.0
 10
11.75
 20
-7.289980520957366
 30
0.0
 10
11.75
 20
-7.289980520957366
 30
0.0
 10
11.70126926131504
 20
-7.268117532543884
 30
0.0
 10
11.70126926131504
 20
-7.268117532543884
 30
0.0
 10
11.62339328113017
 20
-7.254381486023602
 30
0.0
 10
11.54884891434393
 20
-7.253814238462787
 30
0.0
 10
11.47569407223674
 20
-7.256910142725271
 30
0.0
 10
11.47178052775727
 20
-6.878715219931109
 30
0.0
 10
11.39978568372739
 20
-6.502248315591815
 30
0.0
 10
11.21218903263427
 20
-6.185170839799714
 30
0.0
 10
11.21218903263427
 20
-6.185170839799714
 30
0.0
 10
11.39232027304969
 20
-6.024669147129164
 30
0.0
 10
11.39232027304969
 20
-6.024669147129164
 30
0.0
 10
11.39232027304969
 20
-6.024669147129164
 30
0.0
 10
11.33938850202068
 20
-6.031800700931954
 30
0.0
 10
11.33938850202068
 20
-6.031800700931954
 30
0.0
 10
11.27810026249687
 20
-6.056360820118193
 30
0.0
 10
11.22366690834711
 20
-6.087526977655696
 30
0.0
 10
11.17212620763068
 20
-6.121125962606381
 30
0.0
 10
11.14210536465053
 20
-6.075605505076383
 30
0.0
 10
11.10955818341934
 20
-6.031432840115839
 30
0.0
 10
11.07421804212711
 20
-5.988852177846385
 30
0.0
 10
11.02757854581217
 20
-5.921629477805696
 30
0.0
 10
10.96567591690043
 20
-5.864745521455133
 30
0.0
 10
10.89415326395998
 20
-5.820654775079586
 30
0.0
 10
10.89415326395998
 20
-5.820654775079586
 30
0.0
 10
11.07744223398501
 20
-5.546706661513604
 30
0.0
 10
11.07744223398501
 20
-5.546706661513604
 30
0.0
 10
11.07744223398501
 20
-5.546706661513604
 30
0.0
 10
11.02798659310393
 20
-5.566877181046531
 30
0.0
 10
11.02798659310393
 20
-5.566877181046531
 30
0.0
 10
10.94252618844785
 20
-5.62976746988041
 30
0.0
 10
10.87831824690132
 20
-5.704658058610979
 30
0.0
 10
10.81562966326295
 20
-5.779159147654164
 30
0.0
 10
10.61541600443426
 20
-5.689350102637364
 30
0.0
 10
10.36420570794487
 20
-5.690722625345832
 30
0.0
 10
10.1583566687164
 20
-5.826083040566244
 30
0.0
 10
10.1583566687164
 20
-5.826083040566244
 30
0.0
 10
10.03577091586691
 20
-5.630628387840551
 30
0.0
 10
10.03577091586691
 20
-5.630628387840551
 30
0.0
 10
10.03577091586691
 20
-5.630628387840551
 30
0.0
 10
10.03397025262893
 20
-5.684008392636946
 30
0.0
 10
10.03397025262893
 20
-5.684008392636946
 30
0.0
 10
10.04857108119364
 20
-5.751370199709021
 30
0.0
 10
10.07147505389101
 20
-5.812608206137914
 30
0.0
 10
10.09733968790366
 20
-5.871291280092919
 30
0.0
 10
10.0445107015144
 20
-5.915280014645418
 30
0.0
 10
9.99568954325918
 20
-5.969315368122503
 30
0.0
 10
9.952804391154636
 20
-6.03432008383139
 30
0.0
 10
9.675904890075293
 20
-6.55450000780138
 30
0.0
 10
10.10994123930242
 20
-7.13424710819168
 30
0.0
 10
10.11190883097781
 20
-7.687066178596928
 30
0.0
 10
10.11208889730167
 20
-7.690621136062494
 30
0.0
 10
10.11213372067838
 20
-7.694074081705139
 30
0.0
 10
10.11227669179384
 20
-7.697601217764587
 30
0.0
 10
10.11227669179384
 20
-7.697601217764587
 30
0.0
 10
9.792764070137737
 20
-7.587434631539584
 30
0.0
 10
9.792764070137737
 20
-7.587434631539584
 30
0.0
 10
9.792764070137737
 20
-7.587434631539584
 30
0.0
 10
9.827978242284997
 20
-7.627526823582912
 30
0.0
 10
9.827978242284997
 20
-7.627526823582912
 30
0.0
 10
9.919021475795665
 20
-7.693310538666942
 30
0.0
 10
10.01615064192427
 20
-7.737518753202089
 30
0.0
 10
10.11225273447189
 20
-7.780799587528892
 30
0.0
 10
10.08419948316729
 20
-8.405059392289584
 30
0.0
 10
9.439946906746904
 20
-8.532346962795701
 30
0.0
 10
9.341860993370119
 20
-8.069156098266527
 30
0.0
 10
9.269816689062509
 20
-6.803906549785552
 30
0.0
 10
9.759493532343942
 20
-5.219662939748332
 30
0.0
 10
9.580748725340198
 20
-3.780848002727364
 30
0.0
 10
9.56172661163186
 20
-3.480067688464588
 30
0.0
 10
9.38210697596489
 20
-3.1929816886125
 30
0.0
 10
9.128570500785901
 20
-3.027646799422364
 30
0.0
 10
9.128570500785901
 20
-3.027646799422364
 30
0.0
 10
9.239870809315864
 20
-2.88938368414972
 30
0.0
 10
9.239870809315864
 20
-2.88938368414972
 30
0.0
 10
9.239870809315864
 20
-2.88938368414972
 30
0.0
 10
9.29356998746736
 20
-2.851133887453468
 30
0.0
 10
9.29356998746736
 20
-2.851133887453468
 30
0.0
 10
9.29356998746736
 20
-2.851133887453468
 30
0.0
 10
9.145465822549642
 20
-2.896161287839441
 30
0.0
 10
9.145465822549642
 20
-2.896161287839441
 30
0.0
 10
9.145465822549642
 20
-2.896161287839441
 30
0.0
 10
9.05982457875287
 20
-2.986854435321523
 30
0.0
 10
9.05982457875287
 20
-2.986854435321523
 30
0.0
 10
8.998377911776943
 20
-2.953804150327225
 30
0.0
 10
8.933417246627842
 20
-2.92771694506444
 30
0.0
 10
8.865960383084586
 20
-2.91002562195528
 30
0.0
 10
8.865960383084586
 20
-2.91002562195528
 30
0.0
 10
8.902520029350827
 20
-2.714235566720832
 30
0.0
 10
8.902520029350827
 20
-2.714235566720832
 30
0.0
 10
8.902520029350827
 20
-2.714235566720832
 30
0.0
 10
8.93521636423217
 20
-2.638358863701809
 30
0.0
 10
8.93521636423217
 20
-2.638358863701809
 30
0.0
 10
8.93521636423217
 20
-2.638358863701809
 30
0.0
 10
8.837128132404889
 20
-2.679214598783612
 30
0.0
 10
8.837128132404889
 20
-2.679214598783612
 30
0.0
 10
8.837128132404889
 20
-2.679214598783612
 30
0.0
 10
8.786395798103461
 20
-2.893366782144716
 30
0.0
 10
8.786395798103461
 20
-2.893366782144716
 30
0.0
 10
8.702654910917216
 20
-2.880037237282358
 30
0.0
 10
8.615923995375624
 20
-2.879601368584581
 30
0.0
 10
8.52805858471235
 20
-2.894584741485131
 30
0.0
 10
8.296240581197809
 20
-2.952496544233478
 30
0.0
 10
8.119398449254934
 20
-3.063536413488059
 30
0.0
 10
7.994592393623078
 20
-3.22444615345042
 30
0.0
 10
7.994592393623078
 20
-3.22444615345042
 30
0.0
 10
7.729486850344276
 20
-2.980389049635139
 30
0.0
 10
7.729486850344276
 20
-2.980389049635139
 30
0.0
 10
7.729486850344276
 20
-2.980389049635139
 30
0.0
 10
7.676407471298691
 20
-2.982110885555421
 30
0.0
 10
7.676407471298691
 20
-2.982110885555421
 30
0.0
 10
7.676407471298691
 20
-2.982110885555421
 30
0.0
 10
7.697926556218185
 20
-3.03024810090695
 30
0.0
 10
7.697926556218185
 20
-3.03024810090695
 30
0.0
 10
7.697926556218185
 20
-3.03024810090695
 30
0.0
 10
7.947222585394077
 20
-3.291667307857362
 30
0.0
 10
7.947222585394077
 20
-3.291667307857362
 30
0.0
 10
7.833834898578389
 20
-3.469891236310837
 30
0.0
 10
7.774640992692083
 20
-3.699991267989301
 30
0.0
 10
7.767161671311113
 20
-3.979124982554165
 30
0.0
 10
7.767161671311113
 20
-3.979124982554165
 30
0.0
 10
7.530632576337716
 20
-3.922217841698334
 30
0.0
 10
7.530632576337716
 20
-3.922217841698334
 30
0.0
 10
7.530632576337716
 20
-3.922217841698334
 30
0.0
 10
7.479420322778575
 20
-3.960592834722636
 30
0.0
 10
7.479420322778575
 20
-3.960592834722636
 30
0.0
 10
7.479420322778575
 20
-3.960592834722636
 30
0.0
 10
7.520890447248322
 20
-3.998961645212224
 30
0.0
 10
7.520890447248322
 20
-3.998961645212224
 30
0.0
 10
7.520890447248322
 20
-3.998961645212224
 30
0.0
 10
7.766826268802484
 20
-4.080299072025001
 30
0.0
 10
7.766826268802484
 20
-4.080299072025001
 30
0.0
 10
7.767314689045532
 20
-4.110615131038053
 30
0.0
 10
7.768160923485665
 20
-4.141268138193746
 30
0.0
 10
7.769762199978837
 20
-4.172635228109723
 30
0.0
 10
7.770299307682939
 20
-4.188598532763889
 30
0.0
 10
7.771004116641254
 20
-4.204552563615973
 30
0.0
 10
7.771573682652742
 20
-4.220512777002922
 30
0.0
 10
7.771573682652742
 20
-4.220512777002922
 30
0.0
 10
7.430191117231591
 20
-4.21124206618611
 30
0.0
 10
7.430191117231591
 20
-4.21124206618611
 30
0.0
 10
7.430191117231591
 20
-4.21124206618611
 30
0.0
 10
7.378752428338051
 20
-4.250797923342361
 30
0.0
 10
7.378752428338051
 20
-4.250797923342361
 30
0.0
 10
7.378752428338051
 20
-4.250797923342361
 30
0.0
 10
7.428848734379926
 20
-4.275092193535556
 30
0.0
 10
7.428848734379926
 20
-4.275092193535556
 30
0.0
 10
7.428848734379926
 20
-4.275092193535556
 30
0.0
 10
7.774833424085247
 20
-4.306674126533052
 30
0.0
 10
7.774833424085247
 20
-4.306674126533052
 30
0.0
 10
7.777153420240008
 20
-4.365861077067923
 30
0.0
 10
7.779683622575273
 20
-4.425040299434309
 30
0.0
 10
7.782404710670157
 20
-4.484213339265971
 30
0.0
 10
7.782404710670157
 20
-4.484213339265971
 30
0.0
 10
7.651030484712262
 20
-4.488868787912224
 30
0.0
 10
7.651030484712262
 20
-4.488868787912224
 30
0.0
 10
7.651030484712262
 20
-4.488868787912224
 30
0.0
 10
7.577370220391408
 20
-4.481894888744856
 30
0.0
 10
7.577370220391408
 20
-4.481894888744856
 30
0.0
 10
7.577370220391408
 20
-4.481894888744856
 30
0.0
 10
7.636982993005277
 20
-4.52658224972111
 30
0.0
 10
7.636982993005277
 20
-4.52658224972111
 30
0.0
 10
7.636982993005277
 20
-4.52658224972111
 30
0.0
 10
7.784288838126915
 20
-4.52550648867931
 30
0.0
 10
7.784288838126915
 20
-4.52550648867931
 30
0.0
 10
7.829730468339271
 20
-5.483023462601674
 30
0.0
 10
7.92366944655075
 20
-6.438783051029026
 30
0.0
 10
7.984016395163002
 20
-7.395670952043196
 30
0.0
 10
7.996599398957515
 20
-7.812472712913758
 30
0.0
 10
7.634846927258523
 20
-7.8073999431736
 30
0.0
 10
7.440904677089293
 20
-7.614838716698209
 30
0.0
 10
7.440904677089293
 20
-7.614838716698209
 30
0.0
 10
7.65838229131441
 20
-7.422231121212361
 30
0.0
 10
7.65838229131441
 20
-7.422231121212361
 30
0.0
 10
7.65838229131441
 20
-7.422231121212361
 30
0.0
 10
7.606159193328065
 20
-7.433186572740977
 30
0.0
 10
7.606159193328065
 20
-7.433186572740977
 30
0.0
 10
7.52860547776552
 20
-7.468862889358761
 30
0.0
 10
7.460221234013716
 20
-7.513760456515556
 30
0.0
 10
7.394556532723122
 20
-7.560636434783595
 30
0.0
 10
7.383618855981821
 20
-7.545436673167639
 30
0.0
 10
7.373638699305527
 20
-7.529491916117624
 30
0.0
 10
7.364862591266627
 20
-7.512819165604014
 30
0.0
 10
7.211949959968124
 20
-7.216323347904032
 30
0.0
 10
7.255509008357421
 20
-6.700389279654726
 30
0.0
 10
7.345134122966126
 20
-6.25514476779209
 30
0.0
 10
7.345134122966126
 20
-6.25514476779209
 30
0.0
 10
7.617698894388114
 20
-6.216259715653197
 30
0.0
 10
7.617698894388114
 20
-6.216259715653197
 30
0.0
 10
7.617698894388114
 20
-6.216259715653197
 30
0.0
 10
7.568072460985174
 20
-6.196648715512638
 30
0.0
 10
7.568072460985174
 20
-6.196648715512638
 30
0.0
 10
7.497056775892032
 20
-6.185773636935133
 30
0.0
 10
7.427857210373682
 20
-6.183908057082489
 30
0.0
 10
7.35965457857939
 20
-6.185354770207772
 30
0.0
 10
7.365576674026947
 20
-6.157845581958756
 30
0.0
 10
7.371628602703796
 20
-6.130628518475431
 30
0.0
 10
7.377815774327624
 20
-6.103873599462632
 30
0.0
 10
7.404197422806596
 20
-5.989080931631116
 30
0.0
 10
7.401965527771583
 20
-5.867169075066524
 30
0.0
 10
7.375484185920236
 20
-5.751197088736805
 30
0.0
 10
7.375484185920236
 20
-5.751197088736805
 30
0.0
 10
7.546436680722813
 20
-5.690051820328335
 30
0.0
 10
7.546436680722813
 20
-5.690051820328335
 30
0.0
 10
7.546436680722813
 20
-5.690051820328335
 30
0.0
 10
7.581180207414288
 20
-5.660567312235558
 30
0.0
 10
7.581180207414288
 20
-5.660567312235558
 30
0.0
 10
7.581180207414288
 20
-5.660567312235558
 30
0.0
 10
7.532325045218133
 20
-5.639772356695415
 30
0.0
 10
7.532325045218133
 20
-5.639772356695415
 30
0.0
 10
7.532325045218133
 20
-5.639772356695415
 30
0.0
 10
7.358952088071545
 20
-5.689566491352631
 30
0.0
 10
7.358952088071545
 20
-5.689566491352631
 30
0.0
 10
7.288300399710149
 20
-5.460903898997217
 30
0.0
 10
7.121989442850791
 20
-5.266019585099583
 30
0.0
 10
6.89489953276542
 20
-5.211968775285691
 30
0.0
 10
6.89489953276542
 20
-5.211968775285691
 30
0.0
 10
6.919859198258109
 20
-5.074895797947079
 30
0.0
 10
6.919859198258109
 20
-5.074895797947079
 30
0.0
 10
6.919859198258109
 20
-5.074895797947079
 30
0.0
 10
6.911701343691397
 20
-5.030063147404866
 30
0.0
 10
6.911701343691397
 20
-5.030063147404866
 30
0.0
 10
6.911701343691397
 20
-5.030063147404866
 30
0.0
 10
6.869262879720534
 20
-5.061977391643887
 30
0.0
 10
6.869262879720534
 20
-5.061977391643887
 30
0.0
 10
6.869262879720534
 20
-5.061977391643887
 30
0.0
 10
6.834622137668803
 20
-5.201170978392358
 30
0.0
 10
6.834622137668803
 20
-5.201170978392358
 30
0.0
 10
6.780725118406306
 20
-5.194615945952642
 30
0.0
 10
6.723883666981869
 20
-5.195714891499581
 30
0.0
 10
6.664439368439211
 20
-5.20590370872277
 30
0.0
 10
6.593056595347029
 20
-5.216747874626384
 30
0.0
 10
6.526672401578
 20
-5.236603084888606
 30
0.0
 10
6.465379525153316
 20
-5.264011806948335
 30
0.0
 10
6.465379525153316
 20
-5.264011806948335
 30
0.0
 10
6.329836725158479
 20
-5.055853591000969
 30
0.0
 10
6.329836725158479
 20
-5.055853591000969
 30
0.0
 10
6.329836725158479
 20
-5.055853591000969
 30
0.0
 10
6.279293730982949
 20
-5.039578068343189
 30
0.0
 10
6.279293730982949
 20
-5.039578068343189
 30
0.0
 10
6.279293730982949
 20
-5.039578068343189
 30
0.0
 10
6.286249082546115
 20
-5.084613196897635
 30
0.0
 10
6.286249082546115
 20
-5.084613196897635
 30
0.0
 10
6.286249082546115
 20
-5.084613196897635
 30
0.0
 10
6.404594389392665
 20
-5.294508705102089
 30
0.0
 10
6.404594389392665
 20
-5.294508705102089
 30
0.0
 10
6.20679887445749
 20
-5.405822151518337
 30
0.0
 10
6.070953130261286
 20
-5.602500946119309
 30
0.0
 10
6.007547372594975
 20
-5.836129659490831
 30
0.0
 10
5.947132416100859
 20
-5.832828185948882
 30
0.0
 10
5.886708185804738
 20
-5.833843667277076
 30
0.0
 10
5.82730020965366
 20
-5.848361804439719
 30
0.0
 10
5.82730020965366
 20
-5.848361804439719
 30
0.0
 10
5.791902107098394
 20
-5.873311423313478
 30
0.0
 10
5.791902107098394
 20
-5.873311423313478
 30
0.0
 10
5.791902107098394
 20
-5.873311423313478
 30
0.0
 10
5.988626497892861
 20
-5.917762302336667
 30
0.0
 10
5.988626497892861
 20
-5.917762302336667
 30
0.0
 10
5.974793849267471
 20
-5.989363782594725
 30
0.0
 10
5.967312982252856
 20
-6.063671667427772
 30
0.0
 10
5.96673568807316
 20
-6.139543733545704
 30
0.0
 10
5.956805764491592
 20
-6.296907789844428
 30
0.0
 10
5.95145091660475
 20
-6.458834556768604
 30
0.0
 10
5.954144183293389
 20
-6.621364120828199
 30
0.0
 10
5.860440141401315
 20
-6.613833793535983
 30
0.0
 10
5.76531952624095
 20
-6.604604814828487
 30
0.0
 10
5.672667288068649
 20
-6.625225113762654
 30
0.0
 10
5.672667288068649
 20
-6.625225113762654
 30
0.0
 10
5.637269185513383
 20
-6.647950565769861
 30
0.0
 10
5.637269185513383
 20
-6.647950565769861
 30
0.0
 10
5.637269185513383
 20
-6.647950565769861
 30
0.0
 10
5.956553053384747
 20
-6.713656999169871
 30
0.0
 10
5.956553053384747
 20
-6.713656999169871
 30
0.0
 10
5.957274864313704
 20
-6.733632768859025
 30
0.0
 10
5.958144283258965
 20
-6.753602356013744
 30
0.0
 10
5.959138125715677
 20
-6.773565760633472
 30
0.0
 10
5.909465323302356
 20
-6.772462178185428
 30
0.0
 10
5.859907670598381
 20
-6.774993926154441
 30
0.0
 10
5.811039370515951
 20
-6.785872095999164
 30
0.0
 10
5.811039370515951
 20
-6.785872095999164
 30
0.0
 10
5.775641267960686
 20
-6.808596002372623
 30
0.0
 10
5.775641267960686
 20
-6.808596002372623
 30
0.0
 10
5.775641267960686
 20
-6.808596002372623
 30
0.0
 10
5.963443488333269
 20
-6.847244572558465
 30
0.0
 10
5.963443488333269
 20
-6.847244572558465
 30
0.0
 10
5.988737783517763
 20
-7.222053011958198
 30
0.0
 10
6.065942185868531
 20
-7.590307964551938
 30
0.0
 10
6.23890400445589
 20
-7.903235413911514
 30
0.0
 10
6.19079615614444
 20
-7.923520310336951
 30
0.0
 10
6.142120287455175
 20
-7.942211658437373
 30
0.0
 10
6.091714081860421
 20
-7.956071355652208
 30
0.0
 10
6.091714081860421
 20
-7.956071355652208
 30
0.0
 10
6.06248692177524
 20
-8.030144304165686
 30
0.0
 10
6.06248692177524
 20
-8.030144304165686
 30
0.0
 10
6.083354522098261
 20
-8.027711476752351
 30
0.0
 10
6.104290903120096
 20
-8.025635690719152
 30
0.0
 10
6.124843194172298
 20
-8.021584584842078
 30
0.0
 10
6.176810489784631
 20
-8.007743435231532
 30
0.0
 10
6.227262291572944
 20
-7.989279295281953
 30
0.0
 10
6.276807579207595
 20
-7.968362234681106
 30
0.0
 10
6.316326341155596
 20
-8.032926444791125
 30
0.0
 10
6.360308120356598
 20
-8.094836801871123
 30
0.0
 10
6.409103002839224
 20
-8.153668256659431
 30
0.0
 10
6.357151163563685
 20
-8.198307702991517
 30
0.0
 10
6.304640577712739
 20
-8.242311893880823
 30
0.0
 10
6.247845495298836
 20
-8.281529257261102
 30
0.0
 10
6.247845495298836
 20
-8.281529257261102
 30
0.0
 10
6.235383050931381
 20
-8.345492215869298
 30
0.0
 10
6.235383050931381
 20
-8.345492215869298
 30
0.0
 10
6.253715812018046
 20
-8.33560788848111
 30
0.0
 10
6.272174542249685
 20
-8.325939949808596
 30
0.0
 10
6.289921508171497
 20
-8.315030867290135
 30
0.0
 10
6.344120698818692
 20
-8.278065492182627
 30
0.0
 10
6.394976683814471
 20
-8.237076832604291
 30
0.0
 10
6.444204343727783
 20
-8.194401886680428
 30
0.0
 10
6.506720589210746
 20
-8.264596840289162
 30
0.0
 10
6.576540726651956
 20
-8.330054426666518
 30
0.0
 10
6.654624594566813
 20
-8.3897978053264
 30
0.0
 10
7.244416768248028
 20
-8.784917416924044
 30
0.0
 10
7.618674962057386
 20
-8.448429873369857
 30
0.0
 10
7.832225121099933
 20
-8.894595582906124
 30
0.0
 10
7.843295722337871
 20
-9.05381749088916
 30
0.0
 10
7.851041665528656
 20
-9.2132619701221
 30
0.0
 10
7.856437472708067
 20
-9.372857921455836
 30
0.0
 10
7.856437472708067
 20
-9.372857921455836
 30
0.0
 10
7.717225338355294
 20
-9.324856721868047
 30
0.0
 10
7.717225338355294
 20
-9.324856721868047
 30
0.0
 10
7.717225338355294
 20
-9.324856721868047
 30
0.0
 10
7.752438737685704
 20
-9.364947368277928
 30
0.0
 10
7.752438737685704
 20
-9.364947368277928
 30
0.0
 10
7.786928007636712
 20
-9.389869165745544
 30
0.0
 10
7.822299834419355
 20
-9.41165950937582
 30
0.0
 10
7.85814926200942
 20
-9.431511628370698
 30
0.0
 10
7.860929084184161
 20
-9.5232882650629
 30
0.0
 10
7.863098381054997
 20
-9.615105088230974
 30
0.0
 10
7.86458450783895
 20
-9.706965189141808
 30
0.0
 10
7.86458450783895
 20
-9.706965189141808
 30
0.0
 10
7.581180207414288
 20
-9.60925022784833
 30
0.0
 10
7.581180207414288
 20
-9.60925022784833
 30
0.0
 10
7.581180207414288
 20
-9.60925022784833
 30
0.0
 10
7.616393606744698
 20
-9.649340874258188
 30
0.0
 10
7.616393606744698
 20
-9.649340874258188
 30
0.0
 10
7.696390196339532
 20
-9.707142937015153
 30
0.0
 10
7.781087057957266
 20
-9.748279977426792
 30
0.0
 10
7.865656404796532
 20
-9.78677552987819
 30
0.0
 10
7.872795686767555
 20
-10.34247411583056
 30
0.0
 10
7.864453154572098
 20
-11.01433634668903
 30
0.0
 10
7.875636587068761
 20
-11.56961452028028
 30
0.0
 10
7.875636587068761
 20
-11.56961452028028
 30
0.0
 10
8.94400174607338
 20
-11.53136008668318
 30
0.0
 10
9.47957849995363
 20
-11.56961452028028
 30
0.0
 10
9.476302529367356
 20
-11.11107755876376
 30
0.0
 10
9.467418999787544
 20
-10.6521263674207
 30
0.0
 10
9.463288293775829
 20
-10.19359558843876
 30
0.0
 10
9.463288293775829
 20
-10.19359558843876
 30
0.0
 10
9.730461894919546
 20
-10.14714620506654
 30
0.0
 10
9.730461894919546
 20
-10.14714620506654
 30
0.0
 10
9.730461894919546
 20
-10.14714620506654
 30
0.0
 10
9.68173192905144
 20
-10.12528167101944
 30
0.0
 10
9.68173192905144
 20
-10.12528167101944
 30
0.0
 10
9.606122620659283
 20
-10.11194594362248
 30
0.0
 10
9.533646311737836
 20
-10.11100619834459
 30
0.0
 10
9.462538661440778
 20
-10.11379452150443
 30
0.0
 10
9.462043285846068
 20
-10.04950543418984
 30
0.0
 10
9.461755797981494
 20
-9.985231803211946
 30
0.0
 10
9.461504632508321
 20
-9.92096280913486
 30
0.0
 10
9.561433714049446
 20
-9.87595550198681
 30
0.0
 10
9.662787097027199
 20
-9.83085545681792
 30
0.0
 10
9.757550670807328
 20
-9.76238388476319
 30
0.0
 10
9.757550670807328
 20
-9.76238388476319
 30
0.0
 10
9.792764070137737
 20
-9.722293238353332
 30
0.0
 10
9.792764070137737
 20
-9.722293238353332
 30
0.0
 10
9.792764070137737
 20
-9.722293238353332
 30
0.0
 10
9.461190868871123
 20
-9.836617579179599
 30
0.0
 10
9.461190868871123
 20
-9.836617579179599
 30
0.0
 10
9.46104480648834
 20
-9.761709988478337
 30
0.0
 10
9.461044033671516
 20
-9.686813217212904
 30
0.0
 10
9.461350069140355
 20
-9.611944267353893
 30
0.0
 10
9.530188729194176
 20
-8.963520025629299
 30
0.0
 10
10.07619155506755
 20
-9.069171815873055
 30
0.0
 10
10.35554706806564
 20
-9.129324787458346
 30
0.0
 10
10.84595113199397
 20
-9.194312501196665
 30
0.0
 10
11.16119703187453
 20
-8.766345082616933
 30
0.0
 10
11.31555019376328
 20
-8.39537445164625
 30
0.0
 10
11.40150288274673
 20
-8.082178062026388
 30
0.0
 10
11.47003859859915
 20
-7.711105419232783
 30
0.0
 10
11.47551246027936
 20
-7.337700415215143
 30
0.0
 10
11.47551246027936
 20
-7.337700415215143
 30
0.0
 10
11.75
 20
-7.289980520957366
 30
0.0
 10
11.75
 20
-7.289980520957366
 30
0.0
  0
ENDSEC
  0
SECTION
  2
OBJECTS
  0
DICTIONARY
  5
C
330
0
100
AcDbDictionary
281
     1
  3
ACAD_GROUP
350
D
  3
ACAD_LAYOUT
350
1A
  3
ACAD_MATERIAL
350
3B
  3
ACAD_MLEADERSTYLE
350
44
  3
ACAD_MLINESTYLE
350
17
  3
ACAD_PLOTSETTINGS
350
19
  3
ACAD_PLOTSTYLENAME
350
E
  3
ACAD_TABLESTYLE
350
43
  3
ACAD_VISUALSTYLE
350
2A
  0
SUN
  5
3F
330
29
100
AcDbSun
 90
        1
290
     0
 63
     7
421
 16777215
 40
1.0
291
     1
 91
  2455826
 92
 54000000
292
     0
 70
     2
 71
   256
280
     1
  0
DICTIONARY
  5
D
102
{ACAD_REACTORS
330
C
102
}
330
C
100
AcDbDictionary
281
     1
  0
DICTIONARY
  5
1A
102
{ACAD_REACTORS
330
C
102
}
330
C
100
AcDbDictionary
281
     1
  3
Layout1
350
1E
  3
Layout2
350
26
  3
Model
350
22
  0
DICTIONARY
  5
3B
102
{ACAD_REACTORS
330
C
102
}
330
C
100
AcDbDictionary
281
     1
  3
ByBlock
350
3D
  3
ByLayer
350
3C
  3
Global
350
3E
  0
DICTIONARY
  5
44
102
{ACAD_REACTORS
330
C
102
}
330
C
100
AcDbDictionary
281
     1
  0
DICTIONARY
  5
17
102
{ACAD_REACTORS
330
C
102
}
330
C
100
AcDbDictionary
281
     1
  3
Standard
350
18
  0
DICTIONARY
  5
19
102
{ACAD_REACTORS
330
C
102
}
330
C
100
AcDbDictionary
281
     1
  0
ACDBDICTIONARYWDFLT
  5
E
102
{ACAD_REACTORS
330
C
102
}
330
C
100
AcDbDictionary
281
     1
  3
Normal
350
F
100
AcDbDictionaryWithDefault
340
F
  0
DICTIONARY
  5
43
102
{ACAD_REACTORS
330
C
102
}
330
C
100
AcDbDictionary
281
     1
  0
DICTIONARY
  5
2A
102
{ACAD_REACTORS
330
C
102
}
330
C
100
AcDbDictionary
281
     1
  3
2dWireframe
350
2F
  3
3D Hidden
350
31
  3
3dWireframe
350
30
  3
Basic
350
32
  3
Brighten
350
36
  3
ColorChange
350
3A
  3
Conceptual
350
34
  3
Dim
350
35
  3
Facepattern
350
39
  3
Flat
350
2B
  3
FlatWithEdges
350
2C
  3
Gouraud
350
2D
  3
GouraudWithEdges
350
2E
  3
Linepattern
350
38
  3
Realistic
350
33
  3
Thicken
350
37
  0
LAYOUT
  5
1E
102
{ACAD_REACTORS
330
1A
102
}
330
1A
100
AcDbPlotSettings
  1

  2
none_device
  4

  6

 40
0.0
 41
0.0
 42
0.0
 43
0.0
 44
0.0
 45
0.0
 46
0.0
 47
0.0
 48
0.0
 49
0.0
140
0.0
141
0.0
142
1.0
143
1.0
 70
   688
 72
     0
 73
     0
 74
     5
  7

 75
    16
 76
     0
 77
     2
 78
   300
147
1.0
148
0.0
149
0.0
100
AcDbLayout
  1
Layout1
 70
     1
 71
     1
 10
0.0
 20
0.0
 11
12.0
 21
9.0
 12
0.0
 22
0.0
 32
0.0
 14
1.000000000000000E+20
 24
1.000000000000000E+20
 34
1.000000000000000E+20
 15
-1.000000000000000E+20
 25
-1.000000000000000E+20
 35
-1.000000000000000E+20
146
0.0
 13
0.0
 23
0.0
 33
0.0
 16
1.0
 26
0.0
 36
0.0
 17
0.0
 27
1.0
 37
0.0
 76
     0
330
1B
  0
LAYOUT
  5
26
102
{ACAD_REACTORS
330
1A
102
}
330
1A
100
AcDbPlotSettings
  1

  2
none_device
  4

  6

 40
0.0
 41
0.0
 42
0.0
 43
0.0
 44
0.0
 45
0.0
 46
0.0
 47
0.0
 48
0.0
 49
0.0
140
0.0
141
0.0
142
1.0
143
1.0
 70
   688
 72
     0
 73
     0
 74
     5
  7

 75
    16
 76
     0
 77
     2
 78
   300
147
1.0
148
0.0
149
0.0
100
AcDbLayout
  1
Layout2
 70
     1
 71
     2
 10
0.0
 20
0.0
 11
0.0
 21
0.0
 12
0.0
 22
0.0
 32
0.0
 14
0.0
 24
0.0
 34
0.0
 15
0.0
 25
0.0
 35
0.0
146
0.0
 13
0.0
 23
0.0
 33
0.0
 16
1.0
 26
0.0
 36
0.0
 17
0.0
 27
1.0
 37
0.0
 76
     0
330
23
  0
LAYOUT
  5
22
102
{ACAD_REACTORS
330
1A
102
}
330
1A
100
AcDbPlotSettings
  1

  2
none_device
  4

  6

 40
0.0
 41
0.0
 42
0.0
 43
0.0
 44
0.0
 45
0.0
 46
0.0
 47
0.0
 48
0.0
 49
0.0
140
0.0
141
0.0
142
1.0
143
1.0
 70
  1712
 72
     0
 73
     0
 74
     0
  7

 75
     0
 76
     0
 77
     2
 78
   300
147
1.0
148
0.0
149
0.0
100
AcDbLayout
  1
Model
 70
     1
 71
     0
 10
0.0
 20
0.0
 11
12.0
 21
9.0
 12
0.0
 22
0.0
 32
0.0
 14
1.000000000000000E+20
 24
1.000000000000000E+20
 34
1.000000000000000E+20
 15
-1.000000000000000E+20
 25
-1.000000000000000E+20
 35
-1.000000000000000E+20
146
0.0
 13
0.0
 23
0.0
 33
0.0
 16
1.0
 26
0.0
 36
0.0
 17
0.0
 27
1.0
 37
0.0
 76
     0
330
1F
331
29
  0
MATERIAL
  5
3D
102
{ACAD_REACTORS
330
3B
102
}
330
3B
100
AcDbMaterial
  1
ByBlock
 72
     1
 94
      127
  0
MATERIAL
  5
3C
102
{ACAD_REACTORS
330
3B
102
}
330
3B
100
AcDbMaterial
  1
ByLayer
 72
     1
 94
      127
  0
MATERIAL
  5
3E
102
{ACAD_REACTORS
330
3B
102
}
330
3B
100
AcDbMaterial
  1
Global
 72
     1
 94
      127
  0
MLINESTYLE
  5
18
102
{ACAD_REACTORS
330
17
102
}
330
17
100
AcDbMlineStyle
  2
Standard
 70
     0
  3

 62
   256
 51
90.0
 52
90.0
 71
     2
 49
0.5
 62
   256
  6
BYLAYER
 49
-0.5
 62
   256
  6
BYLAYER
  0
ACDBPLACEHOLDER
  5
F
102
{ACAD_REACTORS
330
E
102
}
330
E
  0
VISUALSTYLE
  5
2F
102
{ACAD_REACTORS
330
2A
102
}
330
2A
100
AcDbVisualStyle
  2
2dWireframe
 70
     4
177
     2
291
     0
 71
     0
176
     1
 72
     2
176
     1
 73
     0
176
     1
 90
        0
176
     1
 40
-0.6
176
     1
 41
-30.0
176
     1
 62
     5
 63
     7
421
 16777215
176
     1
 74
     1
176
     1
 91
        4
176
     1
 64
     7
176
     1
 65
   257
176
     1
 75
     1
176
     1
175
     1
176
     1
 42
1.0
176
     1
 92
        0
176
     1
 66
   257
176
     1
 43
1.0
176
     1
 76
     1
176
     1
 77
     6
176
     1
 78
     2
176
     1
 67
     7
176
     1
 79
     5
176
     1
170
     0
176
     1
171
     0
176
     1
290
     0
176
     1
 93
        1
176
     1
 44
0.0
176
     1
173
     0
176
     1
  0
VISUALSTYLE
  5
31
102
{ACAD_REACTORS
330
2A
102
}
330
2A
100
AcDbVisualStyle
  2
3D Hidden
 70
     6
177
     2
291
     0
 71
     1
176
     1
 72
     2
176
     1
 73
     2
176
     1
 90
        0
176
     1
 40
-0.6
176
     1
 41
-30.0
176
     1
 62
     5
 63
     7
421
 16777215
176
     1
 74
     2
176
     1
 91
        2
176
     1
 64
     7
176
     1
 65
   257
176
     1
 75
     2
176
     1
175
     1
176
     1
 42
40.0
176
     1
 92
        0
176
     1
 66
   257
176
     1
 43
1.0
176
     1
 76
     1
176
     1
 77
     6
176
     1
 78
     2
176
     1
 67
     7
176
     1
 79
     3
176
     1
170
     0
176
     1
171
     0
176
     1
290
     0
176
     1
 93
        1
176
     1
 44
0.0
176
     1
173
     0
176
     1
  0
VISUALSTYLE
  5
30
102
{ACAD_REACTORS
330
2A
102
}
330
2A
100
AcDbVisualStyle
  2
3dWireframe
 70
     5
177
     2
291
     0
 71
     0
176
     1
 72
     2
176
     1
 73
     0
176
     1
 90
        0
176
     1
 40
-0.6
176
     1
 41
-30.0
176
     1
 62
     5
 63
     7
421
 16777215
176
     1
 74
     1
176
     1
 91
        4
176
     1
 64
     7
176
     1
 65
   257
176
     1
 75
     1
176
     1
175
     1
176
     1
 42
1.0
176
     1
 92
        0
176
     1
 66
   257
176
     1
 43
1.0
176
     1
 76
     1
176
     1
 77
     6
176
     1
 78
     2
176
     1
 67
     7
176
     1
 79
     5
176
     1
170
     0
176
     1
171
     0
176
     1
290
     0
176
     1
 93
        1
176
     1
 44
0.0
176
     1
173
     0
176
     1
  0
VISUALSTYLE
  5
32
102
{ACAD_REACTORS
330
2A
102
}
330
2A
100
AcDbVisualStyle
  2
Basic
 70
     7
177
     2
291
     1
 71
     1
176
     1
 72
     0
176
     1
 73
     1
176
     1
 90
        0
176
     1
 40
-0.6
176
     1
 41
-30.0
176
     1
 62
     5
 63
     7
421
 16777215
176
     1
 74
     0
176
     1
 91
        4
176
     1
 64
     7
176
     1
 65
   257
176
     1
 75
     1
176
     1
175
     1
176
     1
 42
1.0
176
     1
 92
        8
176
     1
 66
     7
176
     1
 43
1.0
176
     1
 76
     1
176
     1
 77
     6
176
     1
 78
     2
176
     1
 67
     7
176
     1
 79
     5
176
     1
170
     0
176
     1
171
     0
176
     1
290
     0
176
     1
 93
        1
176
     1
 44
0.0
176
     1
173
     0
176
     1
  0
VISUALSTYLE
  5
36
102
{ACAD_REACTORS
330
2A
102
}
330
2A
100
AcDbVisualStyle
  2
Brighten
 70
    12
177
     2
291
     1
 71
     2
176
     1
 72
     2
176
     1
 73
     0
176
     1
 90
        0
176
     1
 40
-0.6
176
     1
 41
-30.0
176
     1
 62
     5
 63
     7
421
 16777215
176
     1
 74
     1
176
     1
 91
        4
176
     1
 64
     7
176
     1
 65
   257
176
     1
 75
     1
176
     1
175
     1
176
     1
 42
1.0
176
     1
 92
        8
176
     1
 66
     7
176
     1
 43
1.0
176
     1
 76
     1
176
     1
 77
     6
176
     1
 78
     2
176
     1
 67
     7
176
     1
 79
     5
176
     1
170
     0
176
     1
171
     0
176
     1
290
     0
176
     1
 93
        1
176
     1
 44
50.0
176
     1
173
     0
176
     1
  0
VISUALSTYLE
  5
3A
102
{ACAD_REACTORS
330
2A
102
}
330
2A
100
AcDbVisualStyle
  2
ColorChange
 70
    16
177
     2
291
     1
 71
     2
176
     1
 72
     2
176
     1
 73
     3
176
     1
 90
        0
176
     1
 40
-0.6
176
     1
 41
-30.0
176
     1
 62
     5
 63
     8
421
  8421504
176
     1
 74
     1
176
     1
 91
        4
176
     1
 64
     7
176
     1
 65
   257
176
     1
 75
     1
176
     1
175
     1
176
     1
 42
1.0
176
     1
 92
        8
176
     1
 66
     8
424
  8421504
176
     1
 43
1.0
176
     1
 76
     1
176
     1
 77
     6
176
     1
 78
     2
176
     1
 67
     7
176
     1
 79
     5
176
     1
170
     0
176
     1
171
     0
176
     1
290
     0
176
     1
 93
        1
176
     1
 44
0.0
176
     1
173
     0
176
     1
  0
VISUALSTYLE
  5
34
102
{ACAD_REACTORS
330
2A
102
}
330
2A
100
AcDbVisualStyle
  2
Conceptual
 70
     9
177
     2
291
     0
 71
     3
176
     1
 72
     2
176
     1
 73
     0
176
     1
 90
        0
176
     1
 40
-0.6
176
     1
 41
-30.0
176
     1
 62
     5
 63
     7
421
 16777215
176
     1
 74
     2
176
     1
 91
        2
176
     1
 64
     7
176
     1
 65
   257
176
     1
 75
     1
176
     1
175
     1
176
     1
 42
40.0
176
     1
 92
        8
176
     1
 66
     7
176
     1
 43
1.0
176
     1
 76
     1
176
     1
 77
     6
176
     1
 78
     2
176
     1
 67
     7
176
     1
 79
     3
176
     1
170
     0
176
     1
171
     0
176
     1
290
     0
176
     1
 93
        1
176
     1
 44
0.0
176
     1
173
     0
176
     1
  0
VISUALSTYLE
  5
35
102
{ACAD_REACTORS
330
2A
102
}
330
2A
100
AcDbVisualStyle
  2
Dim
 70
    11
177
     2
291
     1
 71
     2
176
     1
 72
     2
176
     1
 73
     0
176
     1
 90
        0
176
     1
 40
-0.6
176
     1
 41
-30.0
176
     1
 62
     5
 63
     7
421
 16777215
176
     1
 74
     1
176
     1
 91
        4
176
     1
 64
     7
176
     1
 65
   257
176
     1
 75
     1
176
     1
175
     1
176
     1
 42
1.0
176
     1
 92
        8
176
     1
 66
     7
176
     1
 43
1.0
176
     1
 76
     1
176
     1
 77
     6
176
     1
 78
     2
176
     1
 67
     7
176
     1
 79
     5
176
     1
170
     0
176
     1
171
     0
176
     1
290
     0
176
     1
 93
        1
176
     1
 44
-50.0
176
     1
173
     0
176
     1
  0
VISUALSTYLE
  5
39
102
{ACAD_REACTORS
330
2A
102
}
330
2A
100
AcDbVisualStyle
  2
Facepattern
 70
    15
177
     2
291
     1
 71
     2
176
     1
 72
     2
176
     1
 73
     0
176
     1
 90
        0
176
     1
 40
-0.6
176
     1
 41
-30.0
176
     1
 62
     5
 63
     7
421
 16777215
176
     1
 74
     1
176
     1
 91
        4
176
     1
 64
     7
176
     1
 65
   257
176
     1
 75
     1
176
     1
175
     1
176
     1
 42
1.0
176
     1
 92
        8
176
     1
 66
     7
176
     1
 43
1.0
176
     1
 76
     1
176
     1
 77
     6
176
     1
 78
     2
176
     1
 67
     7
176
     1
 79
     5
176
     1
170
     0
176
     1
171
     0
176
     1
290
     0
176
     1
 93
        1
176
     1
 44
0.0
176
     1
173
     0
176
     1
  0
VISUALSTYLE
  5
2B
102
{ACAD_REACTORS
330
2A
102
}
330
2A
100
AcDbVisualStyle
  2
Flat
 70
     0
177
     2
291
     1
 71
     2
176
     1
 72
     1
176
     1
 73
     1
176
     1
 90
        2
176
     1
 40
-0.6
176
     1
 41
30.0
176
     1
 62
     5
 63
     7
421
 16777215
176
     1
 74
     0
176
     1
 91
        4
176
     1
 64
     7
176
     1
 65
   257
176
     1
 75
     1
176
     1
175
     1
176
     1
 42
1.0
176
     1
 92
        8
176
     1
 66
     7
176
     1
 43
1.0
176
     1
 76
     1
176
     1
 77
     6
176
     1
 78
     2
176
     1
 67
     7
176
     1
 79
     5
176
     1
170
     0
176
     1
171
     0
176
     1
290
     0
176
     1
 93
       13
176
     1
 44
0.0
176
     1
173
     0
176
     1
  0
VISUALSTYLE
  5
2C
102
{ACAD_REACTORS
330
2A
102
}
330
2A
100
AcDbVisualStyle
  2
FlatWithEdges
 70
     1
177
     2
291
     1
 71
     2
176
     1
 72
     1
176
     1
 73
     1
176
     1
 90
        2
176
     1
 40
-0.6
176
     1
 41
30.0
176
     1
 62
     5
 63
     7
421
 16777215
176
     1
 74
     1
176
     1
 91
        4
176
     1
 64
     7
176
     1
 65
   257
176
     1
 75
     1
176
     1
175
     1
176
     1
 42
1.0
176
     1
 92
        0
176
     1
 66
   257
176
     1
 43
1.0
176
     1
 76
     1
176
     1
 77
     6
176
     1
 78
     2
176
     1
 67
     7
176
     1
 79
     5
176
     1
170
     0
176
     1
171
     0
176
     1
290
     0
176
     1
 93
       13
176
     1
 44
0.0
176
     1
173
     0
176
     1
  0
VISUALSTYLE
  5
2D
102
{ACAD_REACTORS
330
2A
102
}
330
2A
100
AcDbVisualStyle
  2
Gouraud
 70
     2
177
     2
291
     1
 71
     2
176
     1
 72
     2
176
     1
 73
     1
176
     1
 90
        2
176
     1
 40
-0.6
176
     1
 41
30.0
176
     1
 62
     5
 63
     7
421
 16777215
176
     1
 74
     0
176
     1
 91
        4
176
     1
 64
     7
176
     1
 65
   257
176
     1
 75
     1
176
     1
175
     1
176
     1
 42
1.0
176
     1
 92
        0
176
     1
 66
     7
176
     1
 43
1.0
176
     1
 76
     1
176
     1
 77
     6
176
     1
 78
     2
176
     1
 67
     7
176
     1
 79
     5
176
     1
170
     0
176
     1
171
     0
176
     1
290
     0
176
     1
 93
       13
176
     1
 44
0.0
176
     1
173
     0
176
     1
  0
VISUALSTYLE
  5
2E
102
{ACAD_REACTORS
330
2A
102
}
330
2A
100
AcDbVisualStyle
  2
GouraudWithEdges
 70
     3
177
     2
291
     1
 71
     2
176
     1
 72
     2
176
     1
 73
     1
176
     1
 90
        2
176
     1
 40
-0.6
176
     1
 41
30.0
176
     1
 62
     5
 63
     7
421
 16777215
176
     1
 74
     1
176
     1
 91
        4
176
     1
 64
     7
176
     1
 65
   257
176
     1
 75
     1
176
     1
175
     1
176
     1
 42
1.0
176
     1
 92
        0
176
     1
 66
   257
176
     1
 43
1.0
176
     1
 76
     1
176
     1
 77
     6
176
     1
 78
     2
176
     1
 67
     7
176
     1
 79
     5
176
     1
170
     0
176
     1
171
     0
176
     1
290
     0
176
     1
 93
       13
176
     1
 44
0.0
176
     1
173
     0
176
     1
  0
VISUALSTYLE
  5
38
102
{ACAD_REACTORS
330
2A
102
}
330
2A
100
AcDbVisualStyle
  2
Linepattern
 70
    14
177
     2
291
     1
 71
     2
176
     1
 72
     2
176
     1
 73
     0
176
     1
 90
        0
176
     1
 40
-0.6
176
     1
 41
-30.0
176
     1
 62
     5
 63
     7
421
 16777215
176
     1
 74
     1
176
     1
 91
        4
176
     1
 64
     7
176
     1
 65
   257
176
     1
 75
     7
176
     1
175
     7
176
     1
 42
1.0
176
     1
 92
        8
176
     1
 66
     7
176
     1
 43
1.0
176
     1
 76
     1
176
     1
 77
     6
176
     1
 78
     2
176
     1
 67
     7
176
     1
 79
     5
176
     1
170
     0
176
     1
171
     0
176
     1
290
     0
176
     1
 93
        1
176
     1
 44
0.0
176
     1
173
     0
176
     1
  0
VISUALSTYLE
  5
33
102
{ACAD_REACTORS
330
2A
102
}
330
2A
100
AcDbVisualStyle
  2
Realistic
 70
     8
177
     2
291
     0
 71
     2
176
     1
 72
     2
176
     1
 73
     0
176
     1
 90
        0
176
     1
 40
-0.6
176
     1
 41
-30.0
176
     1
 62
     5
 63
     7
421
 16777215
176
     1
 74
     1
176
     1
 91
        0
176
     1
 64
     7
176
     1
 65
   257
176
     1
 75
     1
176
     1
175
     1
176
     1
 42
1.0
176
     1
 92
        8
176
     1
 66
     8
424
  7895160
176
     1
 43
1.0
176
     1
 76
     1
176
     1
 77
     6
176
     1
 78
     2
176
     1
 67
     7
176
     1
 79
     5
176
     1
170
     0
176
     1
171
     0
176
     1
290
     0
176
     1
 93
       13
176
     1
 44
0.0
176
     1
173
     0
176
     1
  0
VISUALSTYLE
  5
37
102
{ACAD_REACTORS
330
2A
102
}
330
2A
100
AcDbVisualStyle
  2
Thicken
 70
    13
177
     2
291
     1
 71
     2
176
     1
 72
     2
176
     1
 73
     0
176
     1
 90
        0
176
     1
 40
-0.6
176
     1
 41
-30.0
176
     1
 62
     5
 63
     7
421
 16777215
176
     1
 74
     1
176
     1
 91
        4
176
     1
 64
     7
176
     1
 65
   257
176
     1
 75
     1
176
     1
175
     1
176
     1
 42
1.0
176
     1
 92
       12
176
     1
 66
     7
176
     1
 43
1.0
176
     1
 76
     1
176
     1
 77
     6
176
     1
 78
     2
176
     1
 67
     7
176
     1
 79
     5
176
     1
170
     0
176
     1
171
     0
176
     1
290
     0
176
     1
 93
        1
176
     1
 44
0.0
176
     1
173
     0
176
     1
  0
ENDSEC
  0
EOF
