<svg width="318" height="316" viewBox="0 0 318 316" fill="none" xmlns="http://www.w3.org/2000/svg">
<path d="M138.512 52.5L149.512 116.5H168.512L179.512 52.5C179.512 52.5 192.605 -0.00617755 159.012 0C125.42 0.00617864 138.512 52.5 138.512 52.5Z" fill="#D9D9D9"/>
<path d="M182.842 53.2076L166.86 116.149L184.217 123.877L220.297 69.8838C220.297 69.8838 253.615 27.2424 222.923 13.5846C192.232 -0.0732114 182.842 53.2076 182.842 53.2076Z" fill="#D9D9D9"/>
<path d="M223.051 71.8848L182.851 122.884L195.564 137.004L250.486 102.354C250.486 102.354 298.266 76.9501 275.784 51.9899C253.301 27.0297 223.051 71.8848 223.051 71.8848Z" fill="#D9D9D9"/>
<path d="M252.188 105.302L194.719 135.54L200.591 153.611L264.858 144.295C264.858 144.295 318.84 140.522 308.453 108.575C298.067 76.6282 252.188 105.302 252.188 105.302Z" fill="#D9D9D9"/>
<path d="M265.213 147.68L200.414 151.93L198.428 170.826L260.928 188.456C260.928 188.456 311.778 206.965 315.283 173.556C318.788 140.147 265.213 147.68 265.213 147.68Z" fill="#D9D9D9"/>
<path d="M259.876 191.693L198.95 169.22L189.45 185.674L239.376 227.2C239.376 227.2 278.301 264.792 295.092 235.697C311.883 206.602 259.876 191.693 259.876 191.693Z" fill="#D9D9D9"/>
<path d="M237.098 229.73L190.581 184.418L175.209 195.586L203.928 253.829C203.928 253.829 224.198 304.003 251.372 284.253C278.545 264.503 237.098 229.73 237.098 229.73Z" fill="#D9D9D9"/>
<path d="M200.818 255.214L176.752 194.899L158.168 198.85L160.714 263.738C160.714 263.738 158.824 317.819 191.682 310.829C224.539 303.838 200.818 255.214 200.818 255.214Z" fill="#D9D9D9"/>
<path d="M157.311 263.738L159.857 198.85L141.272 194.899L117.206 255.214C117.206 255.214 93.483 303.85 126.343 310.829C159.203 317.807 157.311 263.738 157.311 263.738Z" fill="#D9D9D9"/>
<path d="M114.097 253.829L142.816 195.586L127.444 184.419L80.9268 229.73C80.9268 229.73 39.4721 264.513 66.6529 284.253C93.8337 303.993 114.097 253.829 114.097 253.829Z" fill="#D9D9D9"/>
<path d="M78.6494 227.2L128.575 185.674L119.075 169.219L58.1494 191.693C58.1494 191.693 6.13127 206.607 22.933 235.696C39.7348 264.786 78.6494 227.2 78.6494 227.2Z" fill="#D9D9D9"/>
<path d="M57.0973 188.456L119.597 170.826L117.611 151.93L52.8116 147.681C52.8116 147.681 -0.775535 140.148 2.74202 173.556C6.25957 206.964 57.0973 188.456 57.0973 188.456Z" fill="#D9D9D9"/>
<path d="M53.1675 144.295L117.434 153.61L123.306 135.54L65.8372 105.302C65.8372 105.302 19.9468 76.6243 9.5719 108.575C-0.802976 140.525 53.1675 144.295 53.1675 144.295Z" fill="#D9D9D9"/>
<path d="M67.5391 102.354L122.461 137.003L135.174 122.884L94.9735 71.8848C94.9735 71.8848 64.7147 27.0213 42.2413 51.9898C19.7679 76.9583 67.5391 102.354 67.5391 102.354Z" fill="#D9D9D9"/>
<path d="M97.7273 69.8841L133.808 123.877L151.165 116.149L135.183 53.2079C135.183 53.2079 125.787 -0.0842181 95.1014 13.5849C64.4154 27.2539 97.7273 69.8841 97.7273 69.8841Z" fill="#D9D9D9"/>
<path d="M138.512 52.5L149.512 116.5H168.512L179.512 52.5C179.512 52.5 192.605 -0.00617755 159.012 0C125.42 0.00617864 138.512 52.5 138.512 52.5Z" fill="#8EDAAE"/>
<path d="M182.842 53.2076L166.86 116.149L184.217 123.877L220.297 69.8838C220.297 69.8838 253.615 27.2424 222.923 13.5846C192.232 -0.0732114 182.842 53.2076 182.842 53.2076Z" fill="#8EDAAE"/>
<path d="M223.051 71.8848L182.851 122.884L195.564 137.004L250.486 102.354C250.486 102.354 298.266 76.9501 275.784 51.9899C253.301 27.0297 223.051 71.8848 223.051 71.8848Z" fill="#8EDAAE"/>
<path d="M252.188 105.302L194.719 135.54L200.591 153.611L264.858 144.295C264.858 144.295 318.84 140.522 308.453 108.575C298.067 76.6282 252.188 105.302 252.188 105.302Z" fill="#8EDAAE"/>
<path d="M265.213 147.68L200.414 151.93L198.428 170.826L260.928 188.456C260.928 188.456 311.778 206.965 315.283 173.556C318.788 140.147 265.213 147.68 265.213 147.68Z" fill="#8EDAAE"/>
<path d="M259.876 191.693L198.95 169.22L189.45 185.674L239.376 227.2C239.376 227.2 278.301 264.792 295.092 235.697C311.883 206.602 259.876 191.693 259.876 191.693Z" fill="#8EDAAE"/>
<path d="M237.098 229.73L190.581 184.418L175.209 195.586L203.928 253.829C203.928 253.829 224.198 304.003 251.372 284.253C278.545 264.503 237.098 229.73 237.098 229.73Z" fill="#8EDAAE"/>
<path d="M200.818 255.214L176.752 194.899L158.168 198.85L160.714 263.738C160.714 263.738 158.824 317.819 191.682 310.829C224.539 303.838 200.818 255.214 200.818 255.214Z" fill="#8EDAAE"/>
<path d="M157.311 263.738L159.857 198.85L141.272 194.899L117.206 255.214C117.206 255.214 93.483 303.85 126.343 310.829C159.203 317.807 157.311 263.738 157.311 263.738Z" fill="#8EDAAE"/>
<path d="M114.097 253.829L142.816 195.586L127.444 184.419L80.9268 229.73C80.9268 229.73 39.4721 264.513 66.6529 284.253C93.8337 303.993 114.097 253.829 114.097 253.829Z" fill="#8EDAAE"/>
<path d="M78.6494 227.2L128.575 185.674L119.075 169.219L58.1494 191.693C58.1494 191.693 6.13127 206.607 22.933 235.696C39.7348 264.786 78.6494 227.2 78.6494 227.2Z" fill="#8EDAAE"/>
<path d="M57.0973 188.456L119.597 170.826L117.611 151.93L52.8116 147.681C52.8116 147.681 -0.775535 140.148 2.74202 173.556C6.25957 206.964 57.0973 188.456 57.0973 188.456Z" fill="#8EDAAE"/>
<path d="M53.1675 144.295L117.434 153.61L123.306 135.54L65.8372 105.302C65.8372 105.302 19.9468 76.6243 9.5719 108.575C-0.802976 140.525 53.1675 144.295 53.1675 144.295Z" fill="#8EDAAE"/>
<path d="M67.5391 102.354L122.461 137.003L135.174 122.884L94.9735 71.8848C94.9735 71.8848 64.7147 27.0213 42.2413 51.9898C19.7679 76.9583 67.5391 102.354 67.5391 102.354Z" fill="#8EDAAE"/>
<path d="M97.7273 69.8841L133.808 123.877L151.165 116.149L135.183 53.2079C135.183 53.2079 125.787 -0.0842181 95.1014 13.5849C64.4154 27.2539 97.7273 69.8841 97.7273 69.8841Z" fill="#8EDAAE"/>
<circle cx="159" cy="158" r="70" fill="#FEEA7A"/>
</svg>
