<svg width="318" height="316" viewBox="0 0 318 316" fill="none" xmlns="http://www.w3.org/2000/svg">
<path d="M138.176 52.5L149.176 116.5H168.176L179.176 52.5C179.176 52.5 192.269 -0.00617755 158.676 0C125.083 0.00617864 138.176 52.5 138.176 52.5Z" fill="#D9D9D9"/>
<path d="M182.505 53.2076L166.523 116.149L183.881 123.877L219.961 69.8838C219.961 69.8838 253.278 27.2424 222.587 13.5846C191.896 -0.0732114 182.505 53.2076 182.505 53.2076Z" fill="#D9D9D9"/>
<path d="M222.715 71.8848L182.514 122.884L195.227 137.004L250.149 102.354C250.149 102.354 297.93 76.9501 275.447 51.9899C252.965 27.0297 222.715 71.8848 222.715 71.8848Z" fill="#D9D9D9"/>
<path d="M251.851 105.302L194.383 135.54L200.254 153.611L264.521 144.295C264.521 144.295 318.503 140.522 308.117 108.575C297.73 76.6282 251.851 105.302 251.851 105.302Z" fill="#D9D9D9"/>
<path d="M264.877 147.68L200.077 151.93L198.091 170.826L260.591 188.456C260.591 188.456 311.441 206.965 314.946 173.556C318.451 140.147 264.877 147.68 264.877 147.68Z" fill="#D9D9D9"/>
<path d="M259.539 191.693L198.614 169.22L189.114 185.674L239.039 227.2C239.039 227.2 277.964 264.792 294.756 235.697C311.547 206.602 259.539 191.693 259.539 191.693Z" fill="#D9D9D9"/>
<path d="M236.761 229.73L190.244 184.418L174.873 195.586L203.592 253.829C203.592 253.829 223.862 304.003 251.035 284.253C278.209 264.503 236.761 229.73 236.761 229.73Z" fill="#D9D9D9"/>
<path d="M200.482 255.214L176.416 194.899L157.831 198.85L160.378 263.738C160.378 263.738 158.488 317.819 191.345 310.829C224.202 303.838 200.482 255.214 200.482 255.214Z" fill="#D9D9D9"/>
<path d="M156.974 263.738L159.521 198.85L140.936 194.899L116.87 255.214C116.87 255.214 93.1464 303.85 126.006 310.829C158.866 317.807 156.974 263.738 156.974 263.738Z" fill="#D9D9D9"/>
<path d="M113.76 253.829L142.479 195.586L127.108 184.419L80.5902 229.73C80.5902 229.73 39.1354 264.513 66.3162 284.253C93.497 303.993 113.76 253.829 113.76 253.829Z" fill="#D9D9D9"/>
<path d="M78.3127 227.2L128.238 185.674L118.738 169.219L57.8127 191.693C57.8127 191.693 5.7946 206.607 22.5964 235.696C39.3981 264.786 78.3127 227.2 78.3127 227.2Z" fill="#D9D9D9"/>
<path d="M56.7606 188.456L119.26 170.826L117.274 151.93L52.4749 147.681C52.4749 147.681 -1.1122 140.148 2.40535 173.556C5.9229 206.964 56.7606 188.456 56.7606 188.456Z" fill="#D9D9D9"/>
<path d="M52.8308 144.295L117.098 153.61L122.969 135.54L65.5005 105.302C65.5005 105.302 19.6101 76.6243 9.23523 108.575C-1.13965 140.525 52.8308 144.295 52.8308 144.295Z" fill="#D9D9D9"/>
<path d="M67.2025 102.354L122.124 137.003L134.838 122.884L94.6368 71.8848C94.6368 71.8848 64.378 27.0213 41.9046 51.9898C19.4312 76.9583 67.2025 102.354 67.2025 102.354Z" fill="#D9D9D9"/>
<path d="M97.3907 69.8841L133.471 123.877L150.828 116.149L134.846 53.2079C134.846 53.2079 125.451 -0.0842181 94.7648 13.5849C64.0787 27.2539 97.3907 69.8841 97.3907 69.8841Z" fill="#D9D9D9"/>
<path d="M138.176 52.5L149.176 116.5H168.176L179.176 52.5C179.176 52.5 192.269 -0.00617755 158.676 0C125.083 0.00617864 138.176 52.5 138.176 52.5Z" fill="#F7AF9D"/>
<path d="M182.505 53.2076L166.523 116.149L183.881 123.877L219.961 69.8838C219.961 69.8838 253.278 27.2424 222.587 13.5846C191.896 -0.0732114 182.505 53.2076 182.505 53.2076Z" fill="#F7AF9D"/>
<path d="M222.715 71.8848L182.514 122.884L195.227 137.004L250.149 102.354C250.149 102.354 297.93 76.9501 275.447 51.9899C252.965 27.0297 222.715 71.8848 222.715 71.8848Z" fill="#F7AF9D"/>
<path d="M251.851 105.302L194.383 135.54L200.254 153.611L264.521 144.295C264.521 144.295 318.503 140.522 308.117 108.575C297.73 76.6282 251.851 105.302 251.851 105.302Z" fill="#F7AF9D"/>
<path d="M264.877 147.68L200.077 151.93L198.091 170.826L260.591 188.456C260.591 188.456 311.441 206.965 314.946 173.556C318.451 140.147 264.877 147.68 264.877 147.68Z" fill="#F7AF9D"/>
<path d="M259.539 191.693L198.614 169.22L189.114 185.674L239.039 227.2C239.039 227.2 277.964 264.792 294.756 235.697C311.547 206.602 259.539 191.693 259.539 191.693Z" fill="#F7AF9D"/>
<path d="M236.761 229.73L190.244 184.418L174.873 195.586L203.592 253.829C203.592 253.829 223.862 304.003 251.035 284.253C278.209 264.503 236.761 229.73 236.761 229.73Z" fill="#F7AF9D"/>
<path d="M200.482 255.214L176.416 194.899L157.831 198.85L160.378 263.738C160.378 263.738 158.488 317.819 191.345 310.829C224.202 303.838 200.482 255.214 200.482 255.214Z" fill="#F7AF9D"/>
<path d="M156.974 263.738L159.521 198.85L140.936 194.899L116.87 255.214C116.87 255.214 93.1464 303.85 126.006 310.829C158.866 317.807 156.974 263.738 156.974 263.738Z" fill="#F7AF9D"/>
<path d="M113.76 253.829L142.479 195.586L127.108 184.419L80.5902 229.73C80.5902 229.73 39.1354 264.513 66.3162 284.253C93.497 303.993 113.76 253.829 113.76 253.829Z" fill="#F7AF9D"/>
<path d="M78.3127 227.2L128.238 185.674L118.738 169.219L57.8127 191.693C57.8127 191.693 5.7946 206.607 22.5964 235.696C39.3981 264.786 78.3127 227.2 78.3127 227.2Z" fill="#F7AF9D"/>
<path d="M56.7606 188.456L119.26 170.826L117.274 151.93L52.4749 147.681C52.4749 147.681 -1.1122 140.148 2.40535 173.556C5.9229 206.964 56.7606 188.456 56.7606 188.456Z" fill="#F7AF9D"/>
<path d="M52.8308 144.295L117.098 153.61L122.969 135.54L65.5005 105.302C65.5005 105.302 19.6101 76.6243 9.23523 108.575C-1.13965 140.525 52.8308 144.295 52.8308 144.295Z" fill="#F7AF9D"/>
<path d="M67.2025 102.354L122.124 137.003L134.838 122.884L94.6368 71.8848C94.6368 71.8848 64.378 27.0213 41.9046 51.9898C19.4312 76.9583 67.2025 102.354 67.2025 102.354Z" fill="#F7AF9D"/>
<path d="M97.3907 69.8841L133.471 123.877L150.828 116.149L134.846 53.2079C134.846 53.2079 125.451 -0.0842181 94.7648 13.5849C64.0787 27.2539 97.3907 69.8841 97.3907 69.8841Z" fill="#F7AF9D"/>
<circle cx="158.663" cy="158" r="70" fill="#FEEA7A"/>
</svg>
